<?xml version="1.0" encoding="utf-8"?>
<!-- Generator: Adobe Illustrator 27.8.1, SVG Export Plug-In . SVG Version: 6.00 Build 0)  -->
<svg version="1.1" id="Layer_1" xmlns="http://www.w3.org/2000/svg" xmlns:xlink="http://www.w3.org/1999/xlink" x="0px" y="0px"
	 viewBox="0 0 724.8 283.5" style="enable-background:new 0 0 724.8 283.5;" xml:space="preserve">
<style type="text/css">
	.st0{clip-path:url(#SVGID_00000044179366866094093120000001050140296925936565_);}
	.st1{fill:#636466;}
	.st2{fill:#005DAA;}
	.st3{clip-path:url(#SVGID_00000001652474524166674000000006179541876278747032_);}
	.st4{fill:#FF4E00;}
	.st5{fill:#003A70;}
	.st6{fill:#FFFFFF;}
</style>
<g>
	<defs>
		<rect id="SVGID_1_" x="-37.9" y="-15.6" width="805.9" height="315.3"/>
	</defs>
	<clipPath id="SVGID_00000108994743882192878260000014277653171006255294_">
		<use xlink:href="#SVGID_1_"  style="overflow:visible;"/>
	</clipPath>
	<g style="clip-path:url(#SVGID_00000108994743882192878260000014277653171006255294_);">
		<rect x="542.7" y="72.1" class="st1" width="2.6" height="143.7"/>
		<polygon class="st2" points="629.7,143.4 629.7,182.2 594.7,143.3 576.6,143.3 576.6,143.4 576.6,215.7 596.8,215.7 596.8,176.9 
			631.3,215.7 649.9,215.7 649.9,143.4 		"/>
		<g>
			<defs>
				<rect id="SVGID_00000078007546203484644590000018400278453875956864_" x="-37.9" y="-15.6" width="805.9" height="315.3"/>
			</defs>
			<clipPath id="SVGID_00000167367714968547884120000002129628613880891555_">
				<use xlink:href="#SVGID_00000078007546203484644590000018400278453875956864_"  style="overflow:visible;"/>
			</clipPath>
			<g style="clip-path:url(#SVGID_00000167367714968547884120000002129628613880891555_);">
				<path class="st2" d="M723.1,113V98l0,0V72.6h-19.7H703V113c0,1.8-0.3,3.4-0.8,4.8c-0.7,1.9-1.9,3.5-3.6,4.9
					c-3.1,2.6-7.6,4.2-12.1,4.2l0,0h0h0c-4.5,0-9-1.6-12.1-4.2c-1.7-1.4-2.8-3-3.6-4.9c-0.6-1.5-0.8-3.1-0.8-4.8V72.6h-0.4h-19.7V98
					l0,0v19.8c0,16,17.5,28.7,35.7,29c0.2,0,0.4,0,0.6,0c0.1,0,0.1,0,0.2,0c0,0,0.1,0,0.1,0h0h0l0,0c0,0,0.1,0,0.1,0
					c0.1,0,0.1,0,0.2,0c0.2,0,0.4,0,0.6,0c18.2-0.3,35.7-12.6,35.7-29L723.1,113L723.1,113z"/>
				<path class="st2" d="M628,117.8c-3.2,5.4-9.1,9-15.7,9c-0.1,0-0.2,0-0.3,0c-10.3,0-18.7-8.5-18.7-19s8.4-19,18.7-19
					c0.1,0,0.2,0,0.3,0c6.6,0.1,12.4,3.7,15.7,9h21.9c0-16.3-17.4-28.7-35.5-29c0,0-0.1,0-0.1,0c-0.2,0-0.4,0-0.6,0
					c-0.1,0-0.1,0-0.2,0c0,0-0.1,0-0.1,0l0,0h-0.1c0,0-0.1,0-0.1,0c-0.1,0-0.1,0-0.2,0c-0.2,0-0.4,0-0.6,0h-1.5
					c-14.4,0-27,7.6-33.9,19.1c-3.5,5.8-5.5,12.6-5.5,19.8l0,0c0,7.2,2,14,5.5,19.8c6.9,11.4,19.5,19.1,33.9,19.1h1.5
					c0.2,0,0.4,0,0.6,0c0.1,0,0.1,0,0.2,0c0,0,0.1,0,0.1,0h0.1l0,0c0,0,0.1,0,0.1,0c0.1,0,0.1,0,0.2,0c0.2,0,0.4,0,0.6,0
					c0,0,0.1,0,0.1,0c18.1-0.3,35.5-12.6,35.5-29L628,117.8L628,117.8z"/>
				<polygon class="st2" points="703,143.4 686.5,176.6 670,143.4 649.9,143.4 676.4,196.9 676.4,215.7 696.6,215.7 696.6,196.9 
					723.1,143.4 				"/>
				<rect x="1.7" y="168.6" class="st4" width="509.8" height="46.8"/>
				<rect x="1.7" y="72.1" class="st5" width="509.8" height="96.8"/>
				<path class="st6" d="M62.6,126.9L62.6,126.9c0.2-0.1,0.4-0.4,0.4-0.7c0-0.3,0-0.7-0.3-0.9l-1.2-0.2c-1.6-0.2-2.7-0.7-3.6-1.8
					c-3.5-4-8.2-9.8-12.3-15.1c-0.5-0.7-0.4-0.9,0.1-1.5c1-1,2-2,3-3c1-1,2-2,3-3c3.5-3.4,4.8-4.5,9.4-5.1h0
					c0.3-0.1,0.4-0.5,0.4-0.9c0-0.4-0.3-0.7-0.5-0.7h0h0c-0.6,0-1.1,0-1.7,0.1c-1.2,0-2.4,0.1-3.8,0.1c-2,0-3.6,0-5.6-0.1h0l0,0
					c-0.2,0.3-0.4,0.6-0.4,1c0,0.3,0.1,0.5,0.3,0.6l1.6,0.5c0.2,0.1,0.3,0.1,0.3,0.2c0.1,0.3-0.3,0.8-0.7,1.3c-0.6,0.8-2,2.4-2.7,3
					l-5.1,5.4c-1.6,1.7-2.8,2.9-3.7,2.9c-0.7,0-0.7-0.8-0.7-2.1v-5.4c0-5.2,0.5-5.3,2.7-5.6l0.8-0.1l0,0c0.2-0.2,0.3-0.6,0.3-0.9
					c0-0.4-0.2-0.6-0.4-0.7h0h0c-1.7,0.1-3.9,0.1-6.4,0.1s-4.7,0-6.6-0.1h0h0c-0.2,0.1-0.3,0.3-0.4,0.6c-0.1,0.3,0,0.7,0.2,1l0,0
					l1,0.1c2.2,0.3,2.7,0.3,2.7,5.6v18.3c0,5.2-0.5,5.3-2.7,5.6l-0.7,0.1h0c-0.2,0.2-0.3,0.5-0.3,0.8c0,0.3,0.1,0.7,0.4,0.8h0h0
					c1.6-0.1,3.9-0.2,6.3-0.2c2.4,0,4.5,0,6.8,0.2h0h0c0.3-0.1,0.4-0.5,0.4-0.8c0-0.3,0-0.7-0.3-0.8l-1.3-0.2
					c-2.2-0.3-2.7-0.3-2.7-5.6v-6.5c0-0.9,0-1.6,0.3-2c0.2-0.2,0.4-0.2,0.7-0.2c0.4,0,0.8,0.3,1.1,0.7c1.2,1.2,4,4.9,6.6,8.2
					c1.4,1.8,2.5,3.3,3.3,4.2c0.3,0.3,0.4,0.6,0.3,0.8c-0.1,0.2-0.3,0.3-0.6,0.3l-1.3,0.2h0c-0.3,0.2-0.4,0.5-0.4,0.8
					c0,0.4,0.2,0.7,0.5,0.8h0h0c2.1-0.1,4.4-0.2,6.9-0.2C58.8,126.8,60.8,126.8,62.6,126.9L62.6,126.9L62.6,126.9z"/>
				<path class="st6" d="M82.3,125.3l-1.1-0.2c-2.2-0.3-2.7-0.4-2.7-5.6v-18.3c0-5.2,0.5-5.3,2.7-5.6l1.1-0.2l0,0
					c0.2-0.2,0.3-0.6,0.2-1c0-0.3-0.2-0.5-0.4-0.6h0h0c-2,0.1-4.1,0.1-6.6,0.1s-4.7,0-6.7-0.1h0h0c-0.2,0.1-0.3,0.3-0.4,0.6
					c0,0.3,0,0.7,0.2,1l0,0l1.1,0.2c2.2,0.3,2.7,0.3,2.7,5.6v18.3c0,5.2-0.5,5.3-2.7,5.6l-1.1,0.2l0,0c-0.2,0.2-0.3,0.6-0.2,1
					c0,0.3,0.2,0.5,0.4,0.6h0h0c2.1-0.1,4.4-0.1,6.7-0.1s4.5,0,6.6,0.1h0h0c0.2-0.1,0.3-0.3,0.4-0.6
					C82.6,125.9,82.5,125.6,82.3,125.3C82.3,125.4,82.3,125.3,82.3,125.3z"/>
				<path class="st6" d="M123.1,127.8L123.1,127.8c0.1,0,0.2,0,0.2,0c0.6,0,1.3-0.3,1.6-0.7l0,0v0c-0.1-0.5-0.1-2.4-0.1-8.7v-11.8
					c0-3.8,0-8.1,0.7-9.7c0.3-0.7,1.2-0.9,2.1-1.1l1.2-0.2l0,0c0.2-0.2,0.3-0.5,0.3-0.8c0-0.3-0.2-0.6-0.4-0.8h0l0,0
					c-1.8,0.1-3.1,0.2-5.2,0.2c-1.9,0-3.7-0.1-5.7-0.2h0h0c-0.2,0.1-0.4,0.3-0.5,0.6c-0.1,0.3,0,0.8,0.3,1l0,0l1.2,0.1
					c1.2,0.2,2,0.5,2.4,1.2c0.9,1.6,0.9,6.8,0.9,9.6v9.6c0,0.6,0,0.9-0.1,1c-0.5-0.4-2.9-3-4.8-5.1c-0.9-1-1.7-1.9-2.3-2.5l-5-5.3
					c-1.8-1.9-7.2-8.1-8-10.2l0-0.1h-0.1c-1.2,0.1-2.4,0.2-3.4,0.2h-0.5c-1.4,0-3.7,0-5.3-0.2h0h0C92.2,94,92,94.2,92,94.6
					c-0.1,0.3,0,0.8,0.2,1l0,0l0.8,0.1c0.7,0.1,2.1,0.5,2.6,1c1.6,1.3,1.6,2.1,1.6,5.7v12c0,3.8,0,8.2-0.6,9.7
					c-0.3,0.7-1.2,0.9-2.1,1.1l-1.1,0.3l0,0c-0.2,0.2-0.3,0.5-0.3,0.8c0,0.3,0.2,0.6,0.4,0.8l0,0h0c1.8-0.1,3.2-0.1,5.2-0.1
					c2,0,3.9,0,5.7,0.1h0h0c0.2-0.1,0.4-0.3,0.5-0.6c0.1-0.3,0-0.8-0.3-1l-1.1-0.2c-1.4-0.2-2.1-0.6-2.5-1.2
					c-0.8-1.4-0.9-5.7-0.9-9.6v-9.6c0-1.8,0-2.7,0.1-3c0.6,0.5,1.6,1.6,3.1,3.3c0.7,0.8,1.5,1.7,2.5,2.8l11.6,13.1
					C120.8,125,122.3,126.7,123.1,127.8L123.1,127.8L123.1,127.8z"/>
				<path class="st6" d="M168.4,113.4L168.4,113.4L168.4,113.4c-2.1,0.1-3.8,0.1-6.1,0.1c-3.3,0-5.7,0-7.8-0.1h0l0,0
					c-0.2,0.1-0.3,0.3-0.3,0.6c0,0.4,0.1,0.7,0.3,0.9l0,0l1.8,0.3c3,0.5,3.3,0.5,3.3,4.2v1.8c0,1.7-0.1,2.6-0.4,3
					c-0.6,0.7-2.1,1.1-4.4,1.1c-1.4,0-6.2-0.3-9.5-4.2c-2.9-3.4-3.6-8-3.6-11.3c0-9.1,4.8-14.5,12.9-14.5c5.1,0,8.4,2.5,9.5,7.1v0
					c0.1,0.2,0.4,0.4,0.8,0.4c0.3,0,0.8-0.1,1-0.5v0v0c-0.1-2-0.3-3.7-0.4-5c-0.1-1.2-0.2-2.1-0.2-2.8v-0.1H165
					c-0.6,0-2-0.2-3.2-0.4c-1.7-0.3-4.3-0.7-6.6-0.7c-6.8,0-12.3,2-16,5.8c-3,3-4.6,7.2-4.6,11.6c0,4.5,1.6,8.5,4.4,11.3
					c3.5,3.6,8.8,5.5,15.4,5.5c3,0,6.9-0.7,9.7-1.3c0.9-0.2,1.8-0.4,2.4-0.4h0l0,0c0.1-0.1,0.2-0.2,0.2-0.3c0-0.2,0-0.4-0.1-0.5l0,0
					c-0.8-0.4-1.1-1.4-1.1-3.3v-2.8c0-3.1,0.3-3.4,2.1-3.6l0.9-0.2l0,0c0.2-0.2,0.4-0.5,0.3-0.9
					C168.8,113.8,168.6,113.5,168.4,113.4"/>
				<path class="st6" d="M191.6,108.1l-3.1-1.6c-3-1.6-4.7-3.7-4.7-5.9c0-3.7,3-5.1,5.5-5.1c4.1,0,5.8,3.1,6.6,5.8v0l0,0
					c0.3,0.2,0.7,0.3,1.1,0.2c0.3-0.1,0.5-0.2,0.6-0.4v0c0-2.4-0.5-5.6-1-6.7l0,0h0c-0.6-0.1-1.1-0.2-1.7-0.4
					c-1.6-0.4-3.2-0.7-5.2-0.7c-3.4,0-6.3,0.9-8.3,2.7c-1.8,1.6-2.8,3.9-2.8,6.4c0,3.8,2.4,7,7.1,9.6l2.1,1.2c3.5,1.9,5,4.1,5,7
					c0,3.1-2.3,5.2-5.8,5.2c-5.3,0-7.9-6.4-8.4-7.7v0l0,0c-0.2-0.2-0.6-0.3-0.9-0.2c-0.3,0.1-0.6,0.2-0.7,0.5v0l0,0
					c-0.1,3.1,0.6,6.5,1.5,7.5l0,0c0.9,0.5,3.5,2.1,8.2,2.1c7.1,0,11.7-3.8,11.7-9.7C198.4,115.1,197.3,111.1,191.6,108.1"/>
				<path class="st6" d="M232.9,111.3c-1.4-1.2-3.3-2.1-5.5-2.4c-0.3-0.1-0.3-0.2-0.3-0.2c0,0,0.1-0.2,0.2-0.2
					c3.6-1.2,5.7-3.5,5.7-6.3c0-3-1.1-5.1-3.5-6.5c-2-1.2-5.1-1.7-9.8-1.7c-4.2,0-7.9,0.1-11.4,0.4h0c-0.2,0.1-0.3,0.4-0.3,0.6
					c0,0.3,0.1,0.7,0.3,0.9l0,0l1.3,0.2c2.2,0.2,2.3,0.7,2.3,5.4v18c0,5.2-0.5,5.3-2.7,5.5l-1.1,0.2l0,0c-0.2,0.2-0.3,0.6-0.3,1
					c0,0.3,0.2,0.5,0.4,0.6h0h0c2-0.1,4.3-0.1,6.7-0.1c0.9,0,1.8,0,2.8,0.1c1.1,0,2.2,0.1,3.3,0.1c5.7,0,9-0.8,11.4-2.8
					c2.5-2,3.1-4.7,3.1-6.6C235.5,114.9,234.6,112.9,232.9,111.3 M220,110.3c5.5,0,8.9,3,8.9,8c0,3.2-2,6.5-6.4,6.5
					s-4.7-1.8-4.7-6.2v-7.1C217.8,110.6,217.8,110.3,220,110.3 M217.8,107v-8.9c0-1.9,0.1-2,2.5-2c2.9,0,6.2,1.6,6.2,5.9
					c0,4.4-2,6.1-6.7,6.1C217.9,108.2,217.8,108.2,217.8,107"/>
				<path class="st6" d="M261.5,93.3c-10.4,0-17.9,7.4-17.9,17.6c0,4.5,1.7,8.6,4.7,11.6c3.3,3.3,7.8,5,13.2,5
					c4.9,0,9.4-1.7,12.6-4.9c3.2-3.1,5-7.4,5-12.2c0-4.7-1.6-8.9-4.4-12C271.5,95.1,266.9,93.3,261.5,93.3 M261.9,125.4
					c-3.8,0-6.8-1.9-8.8-5.4c-1.6-2.8-2.5-6.6-2.5-10.5c0-6.7,2.7-14,10.3-14c7.6,0,11.2,8.3,11.2,15.9c0,4.7-1,8.3-3,10.7
					C267.3,124.3,264.9,125.4,261.9,125.4"/>
				<path class="st6" d="M318.7,126.9L318.7,126.9L318.7,126.9c0.2-0.3,0.2-0.9-0.1-1.2l0,0h0c-0.3,0-1.8-0.2-3.4-1.5
					c-2.3-1.9-4.8-6-8.5-12.3l-0.3-0.5c-0.1-0.2-0.2-0.4-0.2-0.6c0-0.1,0.1-0.1,0.1-0.1c2.3-0.9,6-3.1,6-7.9c0-4.1-2.4-6.2-4.4-7.3
					c-2-1.1-5.3-1.7-9.5-1.7c-4.2,0-8.6,0.2-11.5,0.4h0c-0.2,0.1-0.3,0.4-0.3,0.6c0,0.3,0.1,0.7,0.3,0.9l0,0l1.3,0.2
					c2.2,0.2,2.3,0.7,2.3,5.5v18c0,5.2-0.5,5.3-2.7,5.6l-1.1,0.2h0c-0.2,0.2-0.3,0.5-0.3,0.8c0,0.3,0.2,0.6,0.4,0.8h0h0
					c2.2-0.1,4.4-0.1,6.7-0.1s4.5,0,6.6,0.1h0h0c0.2-0.1,0.3-0.3,0.4-0.6c0-0.3,0-0.7-0.2-1l0,0l-1.1-0.2c-2.2-0.3-2.7-0.4-2.7-5.6
					v-6.3c0-0.7,0.5-1,1.4-1c1.6,0,2.1,0.2,3,1.6c0.5,0.8,1,1.8,1.6,2.8c0.8,1.3,1.5,2.7,2.3,3.9c3.2,4.9,5.9,6.5,10.5,6.5
					C316.8,127.2,317.9,127.1,318.7,126.9 M305.8,103.3c0,4.7-2.3,6.9-7,6.9c-2.3,0-2.3,0-2.3-1.6V98.4c0-2.2,0-2.3,2.5-2.3
					C303.5,96.1,305.8,99.7,305.8,103.3"/>
				<path class="st6" d="M341.1,93.3c-10.4,0-17.9,7.4-17.9,17.6c0,4.5,1.7,8.6,4.7,11.6c3.3,3.3,7.8,5,13.2,5
					c4.9,0,9.4-1.7,12.6-4.9c3.2-3.1,5-7.4,5-12.2c0-4.7-1.6-8.9-4.4-12C351,95.1,346.5,93.3,341.1,93.3 M340.5,95.5
					c7.7,0,11.2,8.3,11.2,15.9c0,4.7-1,8.3-3,10.7c-1.7,2.2-4.2,3.3-7.2,3.3c-3.8,0-6.8-1.9-8.8-5.4c-1.6-2.8-2.5-6.6-2.5-10.5
					C330.2,99.2,335.5,95.5,340.5,95.5"/>
				<path class="st6" d="M393.3,123.9c2.3-2.4,3.3-6,3.3-11.4v-5.8c0-3.8,0-8.2,0.7-9.7c0.3-0.8,1.2-0.9,2.1-1.1l1.1-0.2l0,0
					c0.2-0.2,0.3-0.5,0.3-0.8c0-0.3-0.2-0.6-0.4-0.7l0,0h0c-1.9,0.1-3.2,0.2-5.3,0.2c-1.9,0-3.8-0.1-5.5-0.2h0h0
					c-0.2,0.1-0.4,0.3-0.5,0.6c-0.1,0.3,0,0.7,0.3,1l0,0l1,0.1c1.3,0.2,2,0.6,2.4,1.2c0.9,1.4,0.9,6.4,0.9,9.6v6.1
					c0,8.1-3.1,12.3-9.1,12.3s-8.9-4.2-8.9-12.4v-11.3c0-5.2,0.5-5.3,2.7-5.6l1.1-0.1l0,0c0.2-0.2,0.3-0.6,0.2-0.9
					c0-0.3-0.2-0.5-0.4-0.6h0l0,0c-2.2,0.1-4.5,0.2-6.7,0.2s-4.4-0.1-6.4-0.2h0l0,0c-0.2,0.1-0.3,0.3-0.4,0.6
					c-0.1,0.4,0,0.7,0.2,0.9l0,0l0.9,0.1c2.3,0.3,2.7,0.4,2.7,5.6v12.5c0,5,1.1,8.5,3.3,10.6c2.3,2.2,5.6,3.2,10.3,3.2
					C387.6,127.6,391,126.3,393.3,123.9"/>
				<path class="st6" d="M440.4,113.4L440.4,113.4L440.4,113.4c-2.1,0.1-3.8,0.1-6.1,0.1c-3.3,0-5.7,0-7.8-0.1h0l0,0
					c-0.2,0.1-0.3,0.3-0.4,0.6c0,0.4,0.1,0.7,0.3,0.9l0,0l1.8,0.3c3.3,0.5,3.3,0.8,3.3,4.2v1.8c0,1.7-0.1,2.6-0.4,3
					c-0.6,0.7-2.1,1.1-4.3,1.1c-1.4,0-6.2-0.3-9.5-4.2c-2.9-3.4-3.6-8-3.6-11.3c0-9.1,4.8-14.5,12.9-14.5c5.1,0,8.4,2.5,9.5,7.1v0
					c0.1,0.2,0.4,0.4,0.8,0.4c0.3,0,0.8-0.1,1-0.5v0v0c-0.1-2-0.3-3.7-0.4-5c-0.1-1.2-0.2-2.1-0.2-2.8v-0.1H437
					c-0.6,0-2-0.2-3.2-0.4c-1.7-0.3-4.3-0.7-6.6-0.7c-6.8,0-12.3,2-16,5.8c-3,3-4.6,7.2-4.6,11.6c0,4.5,1.6,8.5,4.4,11.3
					c4.4,4.5,10.8,5.5,15.4,5.5c3,0,6.9-0.7,9.7-1.3c0.9-0.2,1.8-0.4,2.4-0.4h0l0,0c0.1-0.1,0.2-0.2,0.2-0.4c0-0.2,0-0.4-0.1-0.5
					l0,0c-0.8-0.4-1.1-1.4-1.1-3.3v-2.8c0-3.1,0.3-3.4,2.1-3.6l0.9-0.2l0,0c0.3-0.2,0.4-0.5,0.4-0.9
					C440.8,113.8,440.6,113.5,440.4,113.4"/>
				<path class="st6" d="M484.3,125.3L484.3,125.3l-1.1-0.2c-2.2-0.3-2.7-0.4-2.7-5.5v-18.3c0-5.2,0.5-5.3,2.7-5.6l0.9-0.1l0,0
					c0.2-0.2,0.3-0.6,0.3-0.8c0-0.4-0.2-0.7-0.4-0.8h0h0c-2,0.1-4.2,0.2-6.4,0.2c-2.2,0-4.4-0.1-6.7-0.2h0h0
					c-0.2,0.1-0.4,0.4-0.4,0.8c0,0.3,0,0.7,0.3,0.8l1.1,0.2c2.2,0.3,2.7,0.3,2.7,5.6v6c0,1.3-0.1,1.4-2.6,1.4h-11.7
					c-2.5,0-2.6-0.1-2.6-1.4v-6c0-5.2,0.5-5.3,2.7-5.6l0.9-0.1l0,0c0.2-0.2,0.3-0.6,0.3-0.8c0-0.4-0.2-0.6-0.4-0.8h0h0
					c-3.8,0.2-8.8,0.2-13.1,0h0l0,0c-0.3,0.1-0.4,0.5-0.4,0.8c0,0.3,0,0.7,0.3,0.8l1.2,0.2c2.2,0.3,2.7,0.3,2.7,5.6v18.3
					c0,5.2-0.5,5.3-2.7,5.6l-0.7,0.1l0,0c-0.2,0.2-0.3,0.7-0.2,1c0,0.3,0.2,0.5,0.4,0.6h0h0c1.8-0.1,4-0.1,6.3-0.1
					c2.3,0,4.5,0,7,0.1h0l0,0c0.2-0.1,0.3-0.3,0.4-0.6c0-0.3,0-0.7-0.2-1l0,0l-1.5-0.2c-2.2-0.2-2.7-0.3-2.7-5.5v-7.2
					c0-1.2,0.1-1.3,2.6-1.3h11.7c2.5,0,2.6,0.1,2.6,1.3v7.2c0,5.2-0.5,5.3-2.7,5.5l-1.1,0.1l0,0c-0.2,0.2-0.3,0.7-0.2,1
					c0,0.3,0.2,0.5,0.4,0.6h0h0c2.1-0.1,4.3-0.1,6.7-0.1s4.5,0,6.6,0.1h0h0c0.2-0.1,0.3-0.3,0.4-0.6
					C484.6,126,484.5,125.6,484.3,125.3"/>
				<path class="st6" d="M40.4,147.7c-0.2,0-0.3,0.2-0.6,0.6c-0.5,0.7-1.5,2-3.3,2c-0.2,0-1.3,0-2.3-0.9c-1.1-0.9-1.6-2.5-1.6-4.5
					c0-2.5,1.6-5.3,4.2-5.3c1.5,0,2.3,0.9,2.9,1.5c0.3,0.3,0.5,0.6,0.7,0.6c0.2,0,0.4-0.1,0.4-0.3c0-0.2-0.1-1.2-0.1-1.5
					c-0.1-0.7-2.3-1.1-3.8-1.1c-1.7,0-3.4,0.5-4.6,1.4c-1.5,1.1-2.4,2.9-2.4,5c0,3.7,3.5,6,6.8,6c0.7,0,3.5-0.2,3.7-1.1
					c0.1-0.4,0.4-1.7,0.4-1.9C40.7,148,40.6,147.8,40.4,147.7"/>
				<path class="st6" d="M62.8,138.8c-4,0-6.4,3.2-6.4,6.2s2.4,6.2,6.4,6.2s6.4-3.2,6.4-6.2C69.3,142,66.9,138.8,62.8,138.8
					 M62.8,139.6c2.5,0,3.8,1.9,3.8,5.4c0,3.3-1.5,5.4-3.8,5.4s-3.8-2.1-3.8-5.4C59.1,141.5,60.4,139.6,62.8,139.6"/>
				<path class="st6" d="M100.4,150.1c-0.7-0.2-0.9-0.4-0.9-1.2v-8.2c0-0.6,0.1-0.6,1-0.7c0.7-0.1,1-0.2,1-0.5
					c0-0.3-0.1-0.4-0.5-0.4h-3c-0.9,0-1.1,0.2-1.5,1.2l-2.5,6.2h0c-0.1,0.2-0.2,0.4-0.2,0.4c0,0-0.1,0-0.5-0.8l-2.9-6.8
					c-0.1-0.2-0.2-0.3-1-0.3c-0.1,0-0.2,0-0.3,0c-0.2,0-0.6,0.1-1,0.1c-0.3,0-0.6,0-1-0.1c-0.3,0-0.5-0.1-0.6-0.1
					c-0.4,0-0.5,0.2-0.5,0.4c0,0.3,0.2,0.4,0.9,0.5c0.9,0.1,1,0.3,1,0.9l-0.4,7.9c-0.1,1.2-0.4,1.3-0.8,1.3c-0.8,0.1-1,0.1-1,0.5
					c0,0.3,0.3,0.3,0.6,0.3c0.2,0,0.4,0,0.6,0c0.3,0,0.6-0.1,1.1-0.1c0.6,0,1.1,0,1.5,0.1c0.2,0,0.4,0,0.6,0c0.4,0,0.7,0,0.7-0.3
					c0-0.4-0.3-0.4-1.3-0.5c-0.6-0.1-0.8-0.3-0.7-2.2l0.1-6c0,0,0,0,0-0.1c0.1,0.1,0.4,0.7,0.5,0.9l3.3,7.5c0.1,0.2,0.2,0.4,0.4,0.4
					c0.2,0,0.3,0,0.4-0.2l3.1-7.6c0.2-0.6,0.4-0.8,0.4-0.9c0,0.1,0,0.2,0,0.4v7.5c0,0.1,0,0.3-0.7,0.4c-0.4,0-0.8,0.1-0.8,0.5
					c0,0.3,0.2,0.4,0.4,0.4c0.5,0,1,0,1.5,0c0.4,0,0.8,0,1.1,0c0.4,0,0.9,0,1.3,0.1c0.4,0,0.7,0.1,0.9,0.1c0.5,0,0.8-0.1,0.8-0.4
					C101.4,150.5,101.4,150.3,100.4,150.1"/>
				<path class="st6" d="M133.2,150.1c-0.7-0.2-1-0.4-1-1.2v-8.2c0-0.6,0.1-0.6,1-0.7c0.7-0.1,1-0.2,1-0.5c0-0.3-0.1-0.4-0.5-0.4
					h-2.9c-0.9,0-1.1,0.2-1.5,1.2l-2.5,6.2h0c-0.1,0.2-0.2,0.4-0.2,0.4c0,0-0.1-0.1-0.5-0.8l-2.9-6.7c-0.1-0.2-0.2-0.3-1-0.3
					c-0.1,0-0.2,0-0.3,0c-0.2,0-0.6,0.1-1,0.1c-0.3,0-0.6,0-1-0.1c-0.3,0-0.5-0.1-0.6-0.1c-0.4,0-0.5,0.2-0.5,0.4
					c0,0.3,0.2,0.4,0.9,0.5c0.9,0.1,1,0.3,1,0.9l-0.4,7.9c-0.1,1.2-0.4,1.3-0.8,1.3c-0.8,0.1-1,0.1-1,0.5c0,0.3,0.3,0.3,0.5,0.3
					c0.2,0,0.4,0,0.6,0c0.3,0,0.6-0.1,1.1-0.1c0.6,0,1.1,0,1.5,0.1c0.2,0,0.4,0,0.6,0c0.4,0,0.7,0,0.7-0.3c0-0.4-0.3-0.4-1.3-0.5
					c-0.6-0.1-0.8-0.3-0.7-2.2l0.1-6c0,0,0,0,0-0.1c0.1,0.1,0.2,0.3,0.4,0.9l3.3,7.5c0.1,0.3,0.2,0.4,0.4,0.4c0.1,0,0.3,0,0.4-0.2
					l3.1-7.6c0.2-0.6,0.4-0.9,0.4-0.9c0,0.1,0,0.2,0,0.4v7.5c0,0.1,0,0.3-0.7,0.4c-0.4,0-0.8,0.1-0.8,0.5c0,0.3,0.2,0.4,0.4,0.4
					c0.5,0,1,0,1.5,0c0.4,0,0.8,0,1.1,0c0.4,0,0.9,0,1.3,0.1c0.4,0,0.7,0.1,0.9,0.1c0.5,0,0.8-0.1,0.8-0.4
					C134.2,150.5,134.2,150.3,133.2,150.1"/>
				<path class="st6" d="M164.3,139.1h-3c-0.2,0-0.3,0-0.5,0c-0.2,0-0.3,0-0.4,0c-0.4,0-0.5,0.2-0.5,0.4c0,0.3,0.2,0.3,0.8,0.5
					c1.2,0.3,1.2,0.5,1.2,1.2l-0.1,6.4c0,2.5-2.6,2.7-3.7,2.7c-1.3,0-2-0.2-2.5-0.7c-0.6-0.6-0.8-1.5-0.8-3l0.1-5.1
					c0-1.6,0.1-1.6,1-1.6c0.5,0,0.7-0.1,0.7-0.4c0-0.3-0.1-0.5-0.5-0.5h-4.7c-0.3,0-0.8,0-0.8,0.5c0,0.3,0.2,0.4,1.3,0.4
					c0.2,0,0.3,0,0.4,0.1c0.1,0.1,0.1,0.3,0.1,0.6l-0.1,6.8c0,0.9,0.3,1.6,0.8,2.2c1.3,1.3,3.6,1.4,4.6,1.4c3.3,0,4.9-1.3,4.9-4
					l0.1-6c0-0.8,0.2-1,1-1.2c0.6-0.1,0.7-0.2,0.7-0.5C164.5,139.2,164.4,139.1,164.3,139.1"/>
				<path class="st6" d="M194.9,139c-0.1,0-0.3,0-0.4,0c-0.3,0-0.8,0.1-1.4,0.1c-0.3,0-0.7,0-1,0c-0.3,0-0.6,0-0.8,0
					c-0.5,0-0.6,0.3-0.6,0.5c0,0.3,0.1,0.4,0.5,0.4c1.4,0.1,1.4,0.2,1.4,1.3v6.1c0,0,0,0-0.1-0.1c-0.1-0.1-0.1-0.1-0.2-0.2
					c-0.4-0.3-1-0.9-2.1-2.3l-4.6-5.6l0,0h-0.1c-0.7,0.1-1.1,0.1-3.9,0.1c-0.3,0-0.4,0.1-0.4,0.4c0,0.3,0.1,0.4,0.4,0.4
					c1.3,0.2,1.5,0.3,1.5,1.1v3.8c0,0.1,0,0.5,0,1c0,1-0.1,2.4-0.1,3.1c0,1-0.3,1.1-1,1.1c-0.7,0-0.9,0.3-0.9,0.5
					c0,0.4,0.4,0.4,0.7,0.4c0.2,0,0.5,0,0.7,0c0.3,0,0.7,0,1.1,0c0.4,0,0.7,0,1.1,0c0.3,0,0.7,0,1,0s0.6,0,0.6-0.4
					c0-0.2-0.3-0.3-0.8-0.4c-1.2-0.3-1.4-0.6-1.4-1.4c0-0.5,0-1.1,0-1.7c0-0.7,0-1.4,0-2.2v-3.4l7.8,8.6c0.3,0.4,0.5,0.6,0.7,0.9
					c0.3,0.4,0.5,0.7,0.8,0.7c0.2,0,0.3-0.2,0.3-0.5v-3.8c0-2.2,0.1-4.3,0.1-6.2c0.1-1,0.2-1.2,0.6-1.2c1-0.2,1.1-0.2,1.1-0.5
					C195.5,139,195.1,139,194.9,139"/>
				<path class="st6" d="M217.4,150.1L217.4,150.1c-0.7-0.2-1-0.2-1-1.1v-8.4c0-0.6,0-0.7,1-0.8c0.2,0,0.7-0.1,0.7-0.4
					c0-0.3-0.2-0.3-0.6-0.3c-0.2,0-0.4,0-0.7,0c-0.4,0-0.8,0-1.8,0c-0.6,0-1,0-1.3,0c-0.2,0-0.4,0-0.6,0c-0.4,0-0.6,0.1-0.6,0.4
					c0,0.3,0.2,0.4,0.7,0.5c0.7,0,0.8,0.2,0.8,0.9v7.8c0,1.4-0.4,1.4-1,1.4c-0.7,0-0.9,0-0.9,0.4c0,0.2,0,0.5,0.4,0.5
					c0.2,0,0.5,0,0.7,0c0.4,0,0.9,0,1.5,0c0.9,0,1.6,0,2.1,0c0.3,0,0.6,0,0.8,0c0.4,0,0.5,0,0.5-0.3
					C218.1,150.2,217.8,150.1,217.4,150.1"/>
				<path class="st6" d="M247,138.5c-0.3,0-0.3,0.2-0.4,0.3c-0.1,0.2-0.2,0.6-1.4,0.6H238c-1.3,0-1.5-0.3-1.5-0.5
					c0-0.1-0.1-0.3-0.4-0.3c-0.3,0-0.4,0.2-0.6,0.6c-0.1,0.3-0.2,0.6-0.3,0.9c-0.3,0.8-0.6,1.6-0.6,1.9c0,0.2,0.1,0.3,0.4,0.3
					c0.3,0,0.4-0.2,0.6-0.6c0.4-0.6,1-1.6,2.9-1.5c0.9,0,1.4,0.4,1.4,1v7.8c0,0.3-0.2,0.9-0.4,1c-0.2,0.1-0.5,0.1-0.8,0.2
					c-0.4,0-0.9,0.1-0.9,0.4c0,0.3,0.1,0.4,0.5,0.4c0.5,0,1,0,1.4-0.1c0.5,0,0.9-0.1,1.4-0.1c0.3,0,0.8,0,1.3,0c0.5,0,1,0,1.3,0
					c0.3,0,0.7,0,0.7-0.4c0-0.4-0.4-0.5-1.6-0.5c-0.4,0-0.5-0.3-0.5-1.2v-8.2c0-0.3,0-0.3,0.8-0.3c2.6,0,3,0.3,3.2,1.5
					c0,0.1,0.1,0.4,0.4,0.4c0.3,0,0.5-0.2,0.5-3C247.3,138.9,247.3,138.5,247,138.5"/>
				<path class="st6" d="M276.5,139.1c-0.2,0-0.4,0-0.7,0c-0.5,0-1.1,0-1.5,0c-0.3,0-0.6,0-0.9,0c-0.7,0-1,0.1-1,0.4
					c0,0.3,0.4,0.4,1,0.5c0.5,0,0.5,0.1,0.5,0.2c0,0.2,0,0.3-0.2,0.5l-2.5,3.5c-0.1,0.2-0.2,0.3-0.3,0.3c-0.1,0-0.4-0.3-0.5-0.5
					l-2.1-3.1c-0.2-0.3-0.3-0.5-0.3-0.8c0-0.1,0.2-0.1,0.6-0.1c0.4,0,0.8,0,0.8-0.5c0-0.2-0.2-0.4-0.5-0.4c0,0-0.1,0-0.3,0
					c-0.4,0-1.3,0.1-2,0.1c-0.5,0-1,0-1.5,0c-0.4,0-0.7,0-0.9,0c-0.6,0-0.8,0-0.8,0.4c0,0.3,0.3,0.4,0.6,0.4c0.1,0,0.1,0,0.2,0
					c0.3,0.1,0.8,0.4,2.4,2.7l1.4,2c0.6,0.8,0.8,1.3,0.8,2.1v1.8c0,1.3-0.3,1.4-0.9,1.5c-0.4,0-1,0.2-1,0.5c0,0.1,0,0.4,0.3,0.4
					c0.5,0,0.9,0,1.4-0.1c0.4,0,0.8,0,1.2,0c0.4,0,0.8,0,1.2,0c0.4,0,0.9,0,1.4,0c0.3,0,0.9,0,0.9-0.3c0-0.5-0.3-0.5-0.6-0.5
					c-1.3,0-1.4-0.3-1.4-1.7V147c0-1.6,0-1.7,0.8-2.6l2.4-2.9c0.1-0.1,1.4-1.5,1.7-1.5h0.1c0.5-0.1,0.8-0.2,0.8-0.5
					C276.9,139.3,276.9,139,276.5,139.1"/>
				<path class="st6" d="M318.9,147.7c-0.2,0-0.3,0.2-0.6,0.6c-0.5,0.7-1.5,2-3.3,2c-0.2,0-1.3,0-2.3-0.9c-1.1-0.9-1.6-2.5-1.6-4.5
					c0-2.5,1.6-5.3,4.2-5.3c1.5,0,2.3,0.9,2.9,1.5c0.3,0.3,0.5,0.6,0.7,0.6c0.2,0,0.3-0.1,0.3-0.3c0-0.2-0.1-1.2-0.1-1.5
					c-0.1-0.7-2.3-1.1-3.7-1.1c-1.7,0-3.4,0.5-4.6,1.4c-1.5,1.1-2.4,2.9-2.4,5c0,3.7,3.5,6,6.8,6c0.7,0,3.5-0.2,3.7-1.1
					c0.1-0.4,0.4-1.7,0.4-1.9C319.2,148,319.1,147.8,318.9,147.7"/>
				<path class="st6" d="M341.8,138.8c-4,0-6.4,3.2-6.4,6.2s2.4,6.2,6.4,6.2c4,0,6.4-3.2,6.4-6.2C348.3,142,345.9,138.8,341.8,138.8
					 M341.8,139.6c2.5,0,3.8,1.9,3.8,5.4c0,3.3-1.5,5.4-3.8,5.4s-3.8-2.1-3.8-5.4C338,141.5,339.4,139.6,341.8,139.6"/>
				<path class="st6" d="M374.2,147.9c-0.2,0-0.3,0.2-0.5,0.4c-0.5,0.6-1.2,1.6-3.3,1.6h-1.3c-0.3,0-0.4,0-0.4-1v-8.5
					c0-0.4,0.4-0.5,1.4-0.6c0.4-0.1,0.5-0.3,0.5-0.4c0-0.4-0.3-0.5-0.6-0.5c-0.4,0-0.9,0-1.3,0c-0.8,0-1.7,0-2.5,0
					c-0.4,0-0.8,0-1.3,0c-0.4,0-0.4,0.2-0.4,0.4c0,0.3,0.3,0.5,0.9,0.5c0.7,0,0.9,0.4,0.9,0.6v7.3c0,2.1-0.1,2.1-0.6,2.2
					c-0.1,0-0.2,0-0.4,0.1c-0.5,0.1-1,0.1-1,0.5c0,0.4,0.3,0.4,0.8,0.4c0.6,0,1.2,0,1.7,0c0.5,0,1,0,1.4,0c0.7,0,1.6,0,2.6,0
					c1,0,2.1,0,2.9,0c0.5,0,0.8-2,0.8-2.5C374.6,148.1,374.5,147.9,374.2,147.9"/>
				<path class="st6" d="M401.2,147.9c-0.2,0-0.3,0.2-0.5,0.4c-0.5,0.6-1.2,1.6-3.3,1.6H396c-0.3,0-0.4,0-0.4-1v-8.5
					c0-0.4,0.4-0.5,1.4-0.6c0.4,0,0.5-0.3,0.5-0.4c0-0.4-0.3-0.5-0.6-0.5c-0.4,0-0.8,0-1.3,0c-0.8,0-1.7,0-2.5,0c-0.4,0-0.8,0-1.3,0
					c-0.3,0-0.4,0.2-0.4,0.4c0,0.5,0.7,0.5,0.9,0.5c0.7,0,0.9,0.4,0.9,0.6v7.3c0,2.1-0.1,2.1-0.6,2.2c-0.1,0-0.2,0-0.4,0.1
					c-0.5,0.1-1,0.1-1,0.5c0,0.4,0.3,0.4,0.8,0.4c0.6,0,1.2,0,1.8,0c0.5,0,1,0,1.4,0c0.7,0,1.6,0,2.6,0c1,0,2.1,0,2.9,0
					c0.5,0,0.8-2,0.8-2.5C401.5,148.1,401.4,147.9,401.2,147.9"/>
				<path class="st6" d="M427.6,147.8c-0.2,0-0.3,0.2-0.5,0.5c-0.2,0.4-0.5,1-1.3,1.4c-0.4,0.2-0.6,0.3-1.4,0.3
					c-1.2,0-1.7-0.2-1.7-0.7v-3.6c0-0.4,0-0.5,0.7-0.5c1.8,0,2,0.5,2.1,0.9c0.2,0.9,0.3,1,0.6,1c0.3,0,0.4-0.1,0.4-0.4
					c0,0,0-0.1,0-0.2c0-0.2-0.1-0.5-0.1-1.1c0-0.4,0.1-0.9,0.1-1.4c0-0.3,0.1-0.6,0.1-0.8c0-0.2,0-0.4-0.2-0.5
					c-0.1-0.1-0.1-0.1-0.2-0.1c-0.3,0-0.4,0.3-0.6,0.6c-0.1,0.2-0.2,0.3-0.3,0.5c-0.2,0.4-0.4,0.6-1.5,0.6c-1.1,0-1.1-0.1-1.1-0.4
					V141c0-0.7,0.3-1,0.8-1c1.6,0,2.6,0.3,3,0.8c0.2,0.2,0.2,0.5,0.3,0.7c0.1,0.3,0.2,0.6,0.5,0.6c0.4,0,0.4-0.5,0.4-1.2
					c0-1.5,0-1.7-0.5-1.7c-0.9,0-1.7,0-2.4,0c-0.6,0-1.2,0-1.8,0c-1.5,0-2.4,0-3-0.1c-0.4,0-0.7,0-1,0c-0.3,0-0.5,0-0.5,0.4
					c0,0.3,0.2,0.4,1.1,0.5c0.5,0,0.5,0.5,0.5,1v7.1c0,1.8-0.2,1.9-1.4,2c-0.2,0-0.7,0-0.7,0.5c0,0.3,0.2,0.4,0.5,0.4
					c0,0,0.1,0,0.2,0c0.2,0,0.5-0.1,1.2-0.1h4.1c0.3,0,0.6,0,0.9,0c0.5,0,1.2,0.1,2.2,0.1c0.1,0,0.3,0,0.5-1.2
					c0-0.2,0.1-0.4,0.1-0.6c0.1-0.3,0.2-0.7,0.2-0.8C428,148.1,428,147.8,427.6,147.8"/>
				<path class="st6" d="M457.6,145.1c-0.1,0-0.3,0-0.5,0c-0.3,0-0.8,0.1-1.2,0.1h-3.1c-0.3,0-0.6,0-0.6,0.4c0,0.4,0.1,0.4,1.4,0.4
					c0.8,0.1,0.9,0.2,0.9,1.2c0,2.9-0.3,3.1-2.6,3.1c-1.8,0-4.3-1.8-4.3-5.1s1.9-5.6,4.7-5.6c1.5,0,2.5,0.6,3.1,1.8
					c0.3,0.5,0.3,0.6,0.6,0.6c0.3,0,0.3-0.2,0.3-0.3c0-0.3,0-0.7-0.1-1c0-0.3,0-0.5-0.1-0.8c0-1.1-3.9-1.1-4.1-1.1
					c-4.3,0-7.1,2.6-7.1,6.4c0,2,0.8,3.6,2.2,4.6c1.2,0.9,2.9,1.4,4.7,1.4c2.1,0,4.9-0.8,4.9-1.4l0.1-2.8c0-0.9,0.2-1,0.7-1.1
					c0.7-0.1,0.9-0.2,0.9-0.5C458.3,145.1,457.9,145.1,457.6,145.1"/>
				<path class="st6" d="M483.2,147.8c-0.2,0-0.4,0.2-0.5,0.5c-0.2,0.4-0.5,1-1.3,1.4c-0.4,0.2-0.6,0.3-1.4,0.3
					c-1.2,0-1.7-0.2-1.7-0.7v-3.6c0-0.4,0-0.5,0.7-0.5c1.8,0,2,0.5,2.1,0.9c0.2,0.8,0.3,1,0.6,1c0.3,0,0.4-0.1,0.4-0.4
					c0,0,0-0.1,0-0.2c0-0.2-0.1-0.5-0.1-1.1c0-0.4,0-0.9,0.1-1.4c0-0.3,0.1-0.6,0.1-0.8c0-0.3,0-0.4-0.1-0.5
					c-0.1-0.1-0.1-0.1-0.2-0.1c-0.2,0-0.4,0.3-0.6,0.6c-0.1,0.2-0.2,0.3-0.3,0.5c-0.2,0.4-0.4,0.6-1.5,0.6c-1.1,0-1.1-0.1-1.1-0.4
					V141c0-0.7,0.3-1,0.8-1c1.6,0,2.6,0.3,3,0.8c0.2,0.2,0.2,0.5,0.3,0.7c0.1,0.3,0.2,0.6,0.5,0.6c0.4,0,0.4-0.5,0.4-1.2
					c0-1.5,0-1.7-0.5-1.7c-0.9,0-1.7,0-2.4,0c-0.6,0-1.2,0-1.8,0c-1.5,0-2.4,0-3-0.1c-0.4,0-0.7,0-1,0c-0.3,0-0.5,0-0.5,0.4
					c0,0.3,0.2,0.4,1.1,0.5c0.5,0,0.5,0.5,0.5,1v7.1c0,1.8-0.1,1.9-1.4,2c-0.2,0-0.7,0-0.7,0.5c0,0.3,0.2,0.4,0.5,0.4
					c0.1,0,0.1,0,0.2,0c0.2,0,0.5-0.1,1.2-0.1h4.1c0.3,0,0.6,0,1,0c0.5,0,1.2,0.1,2.2,0.1c0.2,0,0.3-0.3,0.5-1.2v0
					c0-0.2,0.1-0.5,0.2-0.7c0.1-0.3,0.1-0.6,0.1-0.7C483.6,148.1,483.6,147.8,483.2,147.8"/>
				<polygon class="st6" points="95.6,183.3 93.8,188.9 87.8,188.8 92.6,192.2 90.7,198 95.7,194.5 100.6,198 98.9,192.4 
					103.6,188.8 97.4,188.9 				"/>
				<polygon class="st6" points="417.3,183.3 415.4,188.9 409.5,188.8 414.2,192.2 412.3,198 417.4,194.5 422.3,198 420.5,192.4 
					425.3,188.8 419,188.9 				"/>
				<rect x="1.7" y="192" class="st6" width="75.9" height="1.8"/>
				<rect x="435.7" y="192" class="st6" width="75.9" height="1.8"/>
				<path class="st6" d="M128.7,184.2c1.1,0.4,2,1,2.7,2c0.6,0.8,0.9,1.6,1.1,2.6s0.3,1.8,0.3,2.6c0,2.1-0.4,3.9-1.3,5.4
					c-1.2,2-3,3-5.4,3h-6.9v-15.9h6.9C127.2,183.8,128,184,128.7,184.2 M122.5,186.6v10.4h3.1c1.6,0,2.7-0.8,3.3-2.3
					c0.3-0.8,0.5-1.9,0.5-3c0-1.6-0.3-2.9-0.8-3.7s-1.5-1.3-3.1-1.3L122.5,186.6L122.5,186.6z"/>
				<path class="st6" d="M147.9,184.2c0.6,0.3,1.1,0.6,1.5,1.1c0.3,0.4,0.6,0.8,0.8,1.3c0.2,0.5,0.3,1,0.3,1.7
					c0,0.8-0.2,1.5-0.6,2.2c-0.4,0.7-1,1.2-1.9,1.5c0.7,0.3,1.3,0.7,1.6,1.3s0.5,1.4,0.5,2.5v1.1c0,0.7,0,1.2,0.1,1.5
					c0.1,0.4,0.3,0.7,0.6,0.9v0.4h-3.7c-0.1-0.4-0.2-0.6-0.2-0.9c-0.1-0.4-0.1-0.9-0.1-1.4l0-1.5c0-1-0.2-1.7-0.5-2
					c-0.3-0.3-1-0.5-1.9-0.5H141v6.2h-3.3v-15.9h7.7C146.5,183.8,147.3,184,147.9,184.2 M141,186.6v4.3h3.6c0.7,0,1.3-0.1,1.6-0.3
					c0.6-0.3,1-0.9,1-1.8c0-1-0.3-1.6-0.9-1.9c-0.3-0.2-0.9-0.3-1.6-0.3L141,186.6L141,186.6z"/>
				<polygon class="st6" points="167.9,186.6 159.4,186.6 159.4,190 167.2,190 167.2,192.8 159.4,192.8 159.4,196.8 168.3,196.8 
					168.3,199.7 156.1,199.7 156.1,183.8 167.9,183.8 				"/>
				<path class="st6" d="M177.7,183.8h3.8l5.7,15.9h-3.6l-1.1-3.3h-5.9l-1.1,3.3H172L177.7,183.8z M177.5,193.7h4.1l-2-6.2
					L177.5,193.7L177.5,193.7z"/>
				<path class="st6" d="M202.2,183.8h4.8v15.9h-3.1V189c0-0.3,0-0.7,0-1.3s0-1,0-1.3l-3,13.3h-3.3l-3-13.3c0,0.3,0,0.7,0,1.3
					c0,0.6,0,1,0,1.3v10.7h-3.1v-15.9h4.9l2.9,12.5L202.2,183.8L202.2,183.8z"/>
				<path class="st6" d="M214.7,194.8c0.1,0.7,0.3,1.3,0.6,1.6c0.6,0.7,1.5,1,2.9,1c0.8,0,1.5-0.1,2-0.3c1-0.3,1.4-0.9,1.4-1.8
					c0-0.5-0.2-0.9-0.7-1.2c-0.5-0.3-1.2-0.5-2.2-0.7l-1.7-0.4c-1.7-0.4-2.9-0.8-3.5-1.2c-1.1-0.7-1.6-1.9-1.6-3.4
					c0-1.4,0.5-2.6,1.6-3.5c1.1-0.9,2.6-1.4,4.7-1.4c1.7,0,3.2,0.4,4.4,1.3c1.2,0.9,1.8,2.2,1.9,3.9h-3.2c-0.1-1-0.5-1.6-1.3-2
					c-0.5-0.3-1.2-0.4-2-0.4c-0.9,0-1.6,0.2-2.1,0.5c-0.5,0.3-0.8,0.8-0.8,1.4c0,0.6,0.3,1,0.8,1.3c0.3,0.2,1,0.4,2.1,0.7l2.8,0.7
					c1.2,0.3,2.2,0.7,2.8,1.2c1,0.7,1.4,1.8,1.4,3.2c0,1.4-0.6,2.7-1.7,3.6s-2.7,1.4-4.8,1.4c-2.1,0-3.8-0.5-5-1.4
					c-1.2-0.9-1.8-2.2-1.8-3.9L214.7,194.8L214.7,194.8z"/>
				<path class="st6" d="M249.9,185.5c0.5,0.7,0.7,1.5,0.7,2.4s-0.2,1.7-0.7,2.3c-0.3,0.3-0.7,0.6-1.2,0.9c0.8,0.3,1.4,0.8,1.9,1.4
					c0.4,0.6,0.6,1.4,0.6,2.3c0,0.9-0.2,1.8-0.7,2.5c-0.3,0.5-0.7,0.9-1.1,1.2c-0.5,0.4-1.1,0.7-1.8,0.8c-0.7,0.1-1.5,0.2-2.3,0.2
					H238v-15.9h7.8C247.7,183.8,249.1,184.4,249.9,185.5 M241.2,186.6v3.5h3.9c0.7,0,1.3-0.1,1.7-0.4c0.4-0.3,0.7-0.7,0.7-1.4
					c0-0.7-0.3-1.2-0.9-1.5c-0.5-0.2-1.1-0.2-1.9-0.2L241.2,186.6L241.2,186.6z M241.2,192.7v4.2h3.9c0.7,0,1.2-0.1,1.6-0.3
					c0.7-0.3,1.1-1,1.1-2c0-0.8-0.3-1.4-1-1.7c-0.4-0.2-0.9-0.3-1.6-0.3L241.2,192.7L241.2,192.7z"/>
				<polygon class="st6" points="268.2,186.6 259.7,186.6 259.7,190 267.5,190 267.5,192.8 259.7,192.8 259.7,196.8 268.6,196.8 
					268.6,199.7 256.4,199.7 256.4,183.8 268.2,183.8 				"/>
				<path class="st6" d="M284.2,188.8c-0.3-1.1-0.9-1.8-1.9-2.3c-0.6-0.2-1.2-0.4-1.8-0.4c-1.3,0-2.4,0.5-3.2,1.4
					c-0.8,1-1.2,2.4-1.2,4.3c0,1.9,0.5,3.3,1.4,4.1c0.9,0.8,1.9,1.2,3.1,1.2s2-0.3,2.8-1c0.7-0.6,1.2-1.5,1.3-2.5h-3.7v-2.6h6.7v8.5
					h-2.2l-0.3-2c-0.6,0.8-1.2,1.3-1.7,1.6c-0.9,0.5-2,0.8-3.3,0.8c-2.1,0-3.9-0.7-5.2-2.2c-1.4-1.5-2.1-3.5-2.1-6s0.7-4.6,2.1-6.2
					c1.4-1.5,3.3-2.3,5.7-2.3c2,0,3.7,0.5,4.9,1.5s1.9,2.3,2.1,3.8L284.2,188.8L284.2,188.8z"/>
				<rect x="292.7" y="183.8" class="st6" width="3.3" height="15.9"/>
				<polygon class="st6" points="301.4,183.8 304.9,183.8 311.3,194.9 311.3,183.8 314.4,183.8 314.4,199.7 311.1,199.7 
					304.5,188.4 304.5,199.7 301.4,199.7 				"/>
				<polygon class="st6" points="328.2,199.7 328.2,183.8 331.6,183.8 331.6,189.9 337.8,189.9 337.8,183.8 341.2,183.8 
					341.2,199.7 337.8,199.7 337.8,192.6 331.6,192.6 331.6,199.7 				"/>
				<polygon class="st6" points="358.5,186.6 350,186.6 350,190 357.8,190 357.8,192.8 350,192.8 350,196.8 358.9,196.8 
					358.9,199.7 346.7,199.7 346.7,183.8 358.5,183.8 				"/>
				<path class="st6" d="M374.1,184.2c0.6,0.3,1.1,0.6,1.5,1.1c0.3,0.4,0.6,0.8,0.8,1.3c0.2,0.5,0.3,1,0.3,1.7
					c0,0.8-0.2,1.5-0.6,2.2c-0.4,0.7-1,1.2-1.9,1.5c0.7,0.3,1.3,0.7,1.6,1.3c0.3,0.5,0.5,1.4,0.5,2.5v1.1c0,0.7,0,1.2,0.1,1.5
					c0.1,0.4,0.3,0.7,0.6,0.9v0.4h-3.7c-0.1-0.4-0.2-0.6-0.2-0.9c-0.1-0.4-0.1-0.9-0.1-1.4l0-1.5c0-1-0.2-1.7-0.5-2
					c-0.3-0.3-1-0.5-1.9-0.5h-3.3v6.2h-3.3v-15.9h7.7C372.6,183.8,373.5,184,374.1,184.2 M367.1,186.6v4.3h3.6
					c0.7,0,1.3-0.1,1.6-0.3c0.6-0.3,1-0.9,1-1.8c0-1-0.3-1.6-0.9-1.9c-0.3-0.2-0.9-0.3-1.6-0.3L367.1,186.6L367.1,186.6z"/>
				<polygon class="st6" points="394,186.6 385.5,186.6 385.5,190 393.3,190 393.3,192.8 385.5,192.8 385.5,196.8 394.4,196.8 
					394.4,199.7 382.2,199.7 382.2,183.8 394,183.8 				"/>
			</g>
		</g>
	</g>
</g>
</svg>
