<svg xmlns="http://www.w3.org/2000/svg" viewBox="0 0 509.5 88.83"><g id="a"><g id="b"><rect width="89.68" height="88.83" fill="#e31b23"></rect><polyline points=".48 72.89 .48 73.15 43.22 40.63 .48 79.61 .48 79.89 43.36 40.79 .48 87.39 .48 87.69 43.49 40.95 7.08 88.33 7.38 88.33 43.64 41.09 13.3 88.33 13.54 88.33 43.81 41.21 18.82 88.33 19.05 88.33 43.99 41.3 23.85 88.33 24.07 88.33 44.15 41.43 28.45 88.33 28.66 88.33 44.36 41.46 32.81 88.33 33.02 88.33 44.53 41.57 36.96 88.33 37.16 88.33 44.73 41.58 40.96 88.33 41.16 88.33 44.94 41.57 44.91 88.33 45.11 88.33 45.14 41.62 48.87 88.33 49.08 88.33 45.33 41.56 52.9 88.33 53.11 88.33 45.53 41.52 57.08 88.33 57.28 88.33 45.72 41.48 61.41 88.33 61.62 88.33 45.92 41.42 66.02 88.33 66.24 88.33 46.09 41.32 71.05 88.33 71.29 88.33 46.27 41.22 76.6 88.33 76.84 88.33 46.42 41.08 82.88 88.33 82.94 88.33 82.94 88.07 46.58 40.95 89.28 87.37 89.28 87.06 46.71 40.79 89.28 79.61 89.28 79.33 46.85 40.63 89.28 72.93 89.28 72.66 46.97 40.45 89.28 67.01 89.28 66.76 47.04 40.25 89.28 61.66 89.28 61.42 47.15 40.07 89.28 56.74 89.28 56.51 47.22 39.86 89.28 52.11 89.28 51.89 47.25 39.65 89.28 47.71 89.28 47.48 47.31 39.44 89.28 43.43 89.28 43.21 47.3 39.22 89.28 39.22 89.28 39 47.33 39 89.28 35.02 89.28 34.8 47.29 38.79 89.28 30.74 89.28 30.52 47.28 38.57 89.28 26.34 89.28 26.12 47.2 38.37 89.28 21.72 89.28 21.49 47.15 38.16 89.28 16.8 89.28 16.57 47.05 37.97 89.28 11.47 89.28 11.22 46.97 37.77 89.28 5.57 89.28 5.3 46.85 37.6 88.07 0 87.77 0 46.72 37.43 81.16 0 80.88 0 46.58 37.29 75.36 0 75.1 0 46.42 37.15 70.35 0 70.11 0 46.26 37.02 65.93 0 65.69 0 46.09 36.9 61.92 0 61.71 0 45.9 36.84 58.24 0 58.03 0 45.73 36.72 54.78 0 54.57 0 45.53 36.71 51.48 0 51.28 0 45.33 36.66 48.28 0 48.08 0 45.14 36.61 45.14 0 44.94 0 44.94 36.66 41.98 0 41.78 0 44.73 36.64 38.79 0 38.59 0 44.54 36.67 35.5 0 35.29 0 44.35 36.74 32.04 0 31.83 0 44.17 36.83 28.37 0 28.15 0 43.98 36.92 24.37 0 24.14 0 43.81 37.03 19.96 0 19.72 0 43.64 37.14 14.97 0 14.71 0 43.49 37.28 9.19 0 8.91 0 43.35 37.43 2.31 0 2 0 43.23 37.61 .48 5.07 .48 5.34 43.12 37.79 .48 11.03 .48 11.28 42.99 37.96 .48 16.41 .48 16.65 42.93 38.17 .48 21.38 .48 21.6 42.86 38.37 .48 26.03 .48 26.25 42.79 38.57 .48 30.46 .48 30.68 42.78 38.79 .48 34.77 .48 34.99 42.74 39 .48 39 .48 39.22 42.77 39.22 .48 43.24 .48 43.46 42.77 39.44 .48 47.54 .48 47.76 42.82 39.65 .48 51.98 .48 52.2 42.84 39.87 .48 56.62 .48 56.85 42.93 40.06 .48 61.58 .48 61.82 43 40.27 .48 66.95 .48 67.2 43.12 40.44" fill="#e8573f"></polyline><circle cx="44.84" cy="43.13" r="21.88" fill="#e31b23"></circle><g><polygon points="63.95 67.52 71.94 68.19 64.61 59.53 56.62 58.86 55.95 66.86 63.29 75.52 63.95 67.52" fill="#fff"></polygon><polygon points="16.16 50.28 11.58 56.87 22.75 54.85 27.32 48.26 20.73 43.69 9.57 45.71 16.16 50.28" fill="#fff"></polygon><polygon points="26.25 67.59 26.98 75.57 34.24 66.85 33.51 58.86 25.51 59.6 18.26 68.32 26.25 67.59" fill="#fff"></polygon><polygon points="73.98 50.15 80.53 45.52 69.35 43.6 62.79 48.23 67.42 54.78 78.61 56.7 73.98 50.15" fill="#fff"></polygon><polygon points="55.01 17.5 51.59 10.25 47.76 20.93 51.18 28.19 58.44 24.76 62.27 14.08 55.01 17.5" fill="#fff"></polygon><polygon points="34.89 17.49 27.6 14.13 31.53 24.78 38.82 28.13 42.18 20.85 38.25 10.21 34.89 17.49" fill="#fff"></polygon><polygon points="45 74.59 50.7 80.24 50.65 68.89 44.95 63.24 39.3 68.94 39.35 80.29 45 74.59" fill="#fff"></polygon><polygon points="70.47 30.47 72.51 22.71 62.71 28.42 60.67 36.18 68.43 38.23 78.23 32.51 70.47 30.47" fill="#fff"></polygon><polygon points="19.55 30.58 11.81 32.69 21.66 38.32 29.4 36.21 27.29 28.47 17.44 22.84 19.55 30.58" fill="#fff"></polygon></g></g></g><g id="c"><g><g><path d="M119.9,68.03c-.06-1.25-.17-1.77-.49-2.47-.47-1.05-1.45-1.66-2.7-1.66-2.38,0-3.55,2.15-3.55,6.51s1.13,6.08,3.63,6.08c1.92,0,3.02-1.19,3.46-3.66l4.39,.26c-.26,1.92-.61,2.88-1.45,4.04-1.42,1.98-3.66,3.05-6.42,3.05-5.26,0-8.66-3.92-8.66-10,0-2.85,.75-5.26,2.27-7.09,1.57-1.95,3.69-2.88,6.48-2.88s4.8,.93,6.13,2.76c.96,1.31,1.34,2.44,1.66,4.74l-4.74,.32Z" fill="#231f20"></path><path d="M141.06,63.03c1.42,1.95,2.21,4.5,2.21,7.29,0,2.53-.81,5.23-2.15,7.04-1.37,1.8-3.57,2.82-6.19,2.82s-4.56-.96-5.96-2.79c-1.45-1.92-2.24-4.45-2.24-7.27s.78-5.29,2.18-7.09c1.42-1.83,3.55-2.82,6.16-2.82s4.59,.93,5.99,2.82Zm-8.75,2.56c-.52,1.1-.84,2.79-.84,4.59,0,4.21,1.19,6.31,3.6,6.31s3.46-2.06,3.46-6.28-1.13-6.31-3.49-6.31c-1.28,0-2.18,.55-2.73,1.69Z" fill="#231f20"></path><path d="M150.43,64.07v15.81h-3.81v-19.39h7.06l3.4,11.6,3.6-11.6h7.06v19.39h-4.56v-15.81l-4.88,15.81h-3.11l-4.77-15.81Z" fill="#231f20"></path><path d="M175.82,64.07v15.81h-3.81v-19.39h7.06l3.4,11.6,3.6-11.6h7.06v19.39h-4.56v-15.81l-4.88,15.81h-3.11l-4.77-15.81Z" fill="#231f20"></path><path d="M212.66,72.59c0,3.17-.44,4.57-1.8,5.78-1.37,1.22-3.28,1.8-5.87,1.8-2.73,0-4.71-.64-6.07-1.92-1.22-1.22-1.71-2.82-1.71-5.67v-12.09h4.91v12.09c0,1.57,.15,2.24,.55,2.82,.49,.7,1.48,1.07,2.73,1.07s2.35-.41,2.85-1.05c.44-.55,.55-1.19,.55-2.85v-12.09h3.87v12.09Z" fill="#231f20"></path><path d="M231.56,79.89h-3.89l-7.59-13.11c.03,.32,.03,.58,.03,.67,.03,.44,.06,.73,.06,.84v11.6h-3.52v-19.39h4.88l6.6,11.42c-.06-.61-.09-.9-.09-1.28v-10.15h3.52v19.39Z" fill="#231f20"></path><path d="M240.38,79.89h-4.53v-19.39h4.53v19.39Z" fill="#231f20"></path><path d="M256.89,64.34h-4.8v15.55h-4.59v-15.55h-4.82v-3.84h14.21v3.84Z" fill="#231f20"></path><path d="M267.14,71.72v8.17h-4.54v-8.17l-6.1-11.22h5.26l3.72,7.36,3.66-7.36h4.07l-6.07,11.22Z" fill="#231f20"></path><path d="M293.31,68.03c-.06-1.25-.18-1.77-.49-2.47-.47-1.05-1.45-1.66-2.7-1.66-2.38,0-3.55,2.15-3.55,6.51s1.13,6.08,3.63,6.08c1.92,0,3.02-1.19,3.46-3.66l4.39,.26c-.26,1.92-.61,2.88-1.45,4.04-1.42,1.98-3.66,3.05-6.43,3.05-5.26,0-8.66-3.92-8.66-10,0-2.85,.75-5.26,2.27-7.09,1.57-1.95,3.69-2.88,6.48-2.88s4.8,.93,6.13,2.76c.96,1.31,1.34,2.44,1.66,4.74l-4.74,.32Z" fill="#231f20"></path><path d="M314.47,63.03c1.42,1.95,2.21,4.5,2.21,7.29,0,2.53-.81,5.23-2.15,7.04-1.37,1.8-3.57,2.82-6.19,2.82s-4.56-.96-5.96-2.79c-1.45-1.92-2.24-4.45-2.24-7.27s.79-5.29,2.18-7.09c1.42-1.83,3.55-2.82,6.16-2.82s4.59,.93,5.99,2.82Zm-8.75,2.56c-.52,1.1-.84,2.79-.84,4.59,0,4.21,1.19,6.31,3.6,6.31s3.46-2.06,3.46-6.28-1.13-6.31-3.49-6.31c-1.28,0-2.18,.55-2.73,1.69Z" fill="#231f20"></path><path d="M332.33,76.05v3.84h-12.29v-19.39h4.59v15.55h7.7Z" fill="#231f20"></path><path d="M347.34,76.05v3.84h-12.29v-19.39h4.59v15.55h7.7Z" fill="#231f20"></path><path d="M354.67,64.19v3.98h7.27v3.63h-7.27v4.24h9.24v3.84h-13.86v-19.39h13.86v3.69h-9.24Z" fill="#231f20"></path><path d="M382.09,79.89h-2.06c-.23-1.02-.29-1.19-.67-2.24-1.66,1.89-2.99,2.53-5.29,2.53-4.88,0-7.99-3.78-7.99-9.74,0-6.28,3.28-10.23,8.46-10.23,4.13,0,6.86,2.38,7.56,6.65l-4.3,.58c-.14-.99-.29-1.4-.58-1.95-.55-1.02-1.57-1.6-2.76-1.6-2.41,0-3.75,2.3-3.75,6.45s1.39,6.13,3.95,6.13c1.05,0,1.95-.41,2.53-1.19,.47-.64,.61-1.13,.61-2.15h-3.66v-3.63h7.96v10.38Z" fill="#231f20"></path><path d="M390.67,64.19v3.98h7.27v3.63h-7.27v4.24h9.24v3.84h-13.86v-19.39h13.86v3.69h-9.24Z" fill="#231f20"></path></g><g><g><g><path d="M180.48,51.57h-4.34c-.49-2.14-.61-2.5-1.41-4.7-3.48,3.97-6.29,5.31-11.12,5.31-10.27,0-16.8-7.94-16.8-20.47,0-13.2,6.9-21.51,17.78-21.51,8.68,0,14.42,5.01,15.89,13.99l-9.04,1.22c-.3-2.08-.61-2.93-1.22-4.09-1.16-2.14-3.3-3.36-5.8-3.36-5.07,0-7.88,4.83-7.88,13.57s2.93,12.89,8.31,12.89c2.2,0,4.09-.86,5.32-2.5,.98-1.34,1.28-2.38,1.28-4.52h-7.7v-7.64h16.74v21.81Z" fill="#231f20"></path><path d="M220.87,36.24c0,6.66-.92,9.59-3.79,12.16-2.87,2.57-6.9,3.79-12.34,3.79-5.74,0-9.9-1.34-12.77-4.03-2.57-2.57-3.6-5.93-3.6-11.91V10.82h10.32v25.42c0,3.3,.31,4.7,1.16,5.93,1.04,1.47,3.12,2.26,5.74,2.26s4.95-.86,5.99-2.2c.92-1.16,1.16-2.5,1.16-5.99V10.82h8.13v25.42Z" fill="#231f20"></path><path d="M261.33,51.57h-10.27l-2.51-8.37h-13.14l-2.57,8.37h-8.37l13.01-40.75h11.06l12.77,40.75Zm-14.97-15.89l-4.34-14.3-4.34,14.3h8.68Z" fill="#231f20"></path><path d="M276.12,51.57h-9.59V10.82h17.9c5.25,0,8.12,.73,10.57,2.75,2.63,2.14,4.28,5.8,4.28,9.47,0,2.93-1.1,5.86-3.06,7.94-.98,1.04-1.89,1.65-3.97,2.63l7.51,17.96h-10.57l-6.23-16.13h-6.84v16.13Zm0-23.1h5.87c3.18,0,3.91-.12,5.07-.85,1.41-.86,2.38-2.69,2.38-4.46,0-1.59-.73-3.12-1.89-4.03-1.22-.92-1.96-1.04-5.8-1.04h-5.62v10.39Z" fill="#231f20"></path><path d="M319.57,10.82c7.82,0,11.98,1.53,15.76,5.68,3.36,3.79,5.19,8.86,5.19,14.6s-1.77,10.75-5.07,14.54c-3.42,3.97-8.19,5.93-14.3,5.93h-13.99V10.82h12.4Zm-3.05,33.12h3.91c3.3,0,5.62-1.04,7.33-3.3,1.89-2.57,2.93-5.99,2.93-9.65s-1.04-6.9-2.87-9.35c-1.77-2.32-3.91-3.3-7.27-3.3h-4.03v25.6Z" fill="#231f20"></path><path d="M357.1,51.57h-9.53V10.82h9.53V51.57Z" fill="#231f20"></path><path d="M398.83,51.57h-10.27l-2.51-8.37h-13.14l-2.57,8.37h-8.37l13.01-40.75h11.06l12.77,40.75Zm-14.97-15.89l-4.34-14.3-4.34,14.3h8.68Z" fill="#231f20"></path></g><path d="M141.86,42.91l-.14,8.09h-32.54V10.24h9.65V42.93l23.03-.02Z" fill="#231f20"></path></g><path d="M137.53,36.19c-.22-1.19-.26-1.42-.26-2.39,0-.04,0-.26,.04-.49-1.79,2.43-3.25,3.25-5.9,3.25-3.51,0-5.79-2.02-5.79-5.15,0-2.61,1.46-4.56,4.11-5.56,1.46-.52,3.17-.82,7.32-1.16v-1.05c0-1.79-.9-2.69-2.73-2.69s-2.91,.93-3.14,2.69l-5-.49c.37-1.98,.93-2.99,2.09-3.88,1.61-1.23,3.88-1.87,6.57-1.87,2.99,0,5.41,.86,6.61,2.32,.78,1.01,1.01,1.98,1.01,4.7v8.33q0,2.2,.34,3.43h-5.26Zm-.49-8.81c-1.68,.19-2.35,.3-3.29,.63-1.6,.52-2.43,1.46-2.43,2.8s.93,2.35,2.31,2.35c1.94,0,3.4-1.79,3.4-4.11v-1.68Z" fill="#231f20"></path></g></g><g><polygon points="465.94 45.72 465.94 64.03 449.61 45.72 441.17 45.72 441.17 45.72 441.17 79.89 450.56 79.89 450.56 61.57 466.67 79.89 475.34 79.89 475.34 45.72 465.94 45.72"></polygon><path d="M509.5,31.37v-7.09h0s0,0,0,0V12.32h-9.19s-.21,0-.21,0V31.37c0,.84-.13,1.6-.39,2.28-.34,.88-.89,1.64-1.66,2.3-1.44,1.24-3.54,1.98-5.62,1.98h0s0,0,0,0c0,0,0,0,0,0h0s0,0,0,0c-2.08,0-4.18-.75-5.62-1.98-.77-.66-1.33-1.43-1.66-2.3-.26-.69-.39-1.45-.39-2.28V12.32h-.21s-9.19,0-9.19,0v11.96s0,0,0,0h0v9.37h0c0,7.55,8.16,13.56,16.64,13.68,.09,0,.18,0,.26,0,.03,0,.07,0,.1,0,.02,0,.04,0,.06,0h0s0,0,0,0c0,0,0,0,0,0,0,0,0,0,.01,0h0s.04,0,.06,0c.03,0,.07,0,.1,0,.09,0,.18,0,.26,0,8.49-.12,16.64-5.95,16.64-13.68h0v-2.28Z"></path><path d="M465.1,33.65c-1.52,2.53-4.22,4.23-7.32,4.27-.04,0-.08,0-.12,0-4.82,0-8.73-4.01-8.73-8.96,0-4.95,3.91-8.96,8.73-8.96,.04,0,.08,0,.12,0,3.1,.04,5.8,1.74,7.32,4.27h10.24c0-7.71-8.12-13.53-16.58-13.68-.02,0-.04,0-.06,0-.09,0-.18,0-.26,0-.03,0-.07,0-.1,0-.02,0-.04,0-.06,0h0s0,0-.01,0c0,0,0,0,0,0,0,0,0,0,0,0h0s-.04,0-.06,0c-.03,0-.07,0-.1,0-.09,0-.18,0-.26,0h-.69c-6.72,0-12.6,3.61-15.8,9.01-1.63,2.74-2.56,5.94-2.56,9.36h0s0,0,0,0c0,3.42,.94,6.62,2.56,9.36,3.2,5.39,9.08,9.01,15.8,9.01h.69c.09,0,.18,0,.26,0,.03,0,.07,0,.1,0,.02,0,.04,0,.06,0h0s0,0,0,0c0,0,0,0,0,0,0,0,0,0,.01,0h0s.04,0,.06,0c.03,0,.07,0,.1,0,.09,0,.18,0,.26,0,.02,0,.04,0,.06,0,8.46-.15,16.58-5.97,16.58-13.68h-10.24Z"></path><polygon points="500.11 45.72 492.42 61.39 484.73 45.72 475.33 45.72 487.72 70.97 487.72 79.89 497.12 79.89 497.12 70.97 509.5 45.72 500.11 45.72"></polygon></g><line x1="421.42" y1="10.82" x2="421.42" y2="79.89" fill="none" stroke="#231f20" stroke-miterlimit="10" strokeWidth="2"></line></g></svg>