<svg width="222" height="50" viewBox="0 0 222 50" fill="none" xmlns="http://www.w3.org/2000/svg">
<path d="M217.564 26.9453L215.286 31.5914L213.007 26.9453H210.224L213.894 34.4305V37.0731H216.679V34.4305L220.349 26.9453H217.564Z" fill="#0D1717"/>
<path d="M207.438 26.9453V32.3732L202.598 26.9453H200.096V37.0731H202.881V31.6452L207.654 37.0731H210.223V26.9453H207.438Z" fill="#0D1717"/>
<path d="M220.346 22.6924C220.346 22.3249 220.346 21.9551 220.346 21.5876C220.346 21.2506 220.346 20.9159 220.346 20.5905C220.346 18.6572 220.346 17.0469 220.346 17.0469H217.622H217.561V20.5905V22.6924C217.561 22.9405 217.523 23.1652 217.444 23.3688C217.345 23.6286 217.182 23.8557 216.952 24.0523C216.524 24.4174 215.901 24.6374 215.286 24.6398H215.283H215.281C214.666 24.6374 214.043 24.4198 213.615 24.0523C213.385 23.8557 213.221 23.6286 213.123 23.3688C213.046 23.1652 213.006 22.9405 213.006 22.6924V20.5905V17.0469H212.945H210.221C210.221 17.0469 210.221 18.6572 210.221 20.5905C210.221 20.9159 210.221 21.2506 210.221 21.5876C210.221 21.9551 210.221 22.3249 210.221 22.6924V23.3688C210.221 25.6088 212.639 27.3876 215.152 27.4228C215.178 27.4228 215.204 27.4228 215.23 27.4228C215.239 27.4228 215.248 27.4228 215.26 27.4228C215.267 27.4228 215.272 27.4228 215.279 27.4228H215.281H215.283C215.286 27.4228 215.286 27.4228 215.286 27.4228C215.29 27.4228 215.297 27.4228 215.302 27.4228C215.312 27.4228 215.321 27.4228 215.333 27.4228C215.358 27.4228 215.384 27.4228 215.41 27.4228C217.924 27.3876 220.341 25.6603 220.341 23.3688V22.6924H220.346Z" fill="#0D1717"/>
<path d="M207.19 23.3689C206.74 24.1179 205.938 24.6212 205.02 24.6352C205.008 24.6352 204.997 24.6352 204.985 24.6352C203.557 24.6352 202.399 23.4462 202.399 21.981C202.399 20.5157 203.557 19.3267 204.985 19.3267C204.997 19.3267 205.008 19.3267 205.02 19.3267C205.938 19.3384 206.74 19.8416 207.19 20.593H210.223C210.223 18.3086 207.817 16.5835 205.31 16.5391C205.303 16.5391 205.299 16.5391 205.292 16.5391C205.266 16.5391 205.24 16.5391 205.214 16.5391C205.205 16.5391 205.193 16.5391 205.184 16.5391C205.179 16.5391 205.172 16.5391 205.168 16.5391H205.165H205.163H205.161C205.154 16.5391 205.149 16.5391 205.142 16.5391C205.133 16.5391 205.123 16.5391 205.111 16.5391C205.086 16.5391 205.06 16.5391 205.034 16.5391H204.831C202.839 16.5391 201.095 17.6111 200.147 19.2073C199.665 20.0195 199.389 20.9675 199.389 21.981C199.389 22.9944 199.667 23.9424 200.147 24.7546C201.095 26.3532 202.839 27.4228 204.831 27.4228H205.034C205.06 27.4228 205.086 27.4228 205.111 27.4228C205.121 27.4228 205.133 27.4228 205.142 27.4228C205.149 27.4228 205.154 27.4228 205.161 27.4228H205.163H205.165C205.168 27.4228 205.168 27.4228 205.168 27.4228C205.172 27.4228 205.179 27.4228 205.184 27.4228C205.193 27.4228 205.205 27.4228 205.214 27.4228C205.24 27.4228 205.266 27.4228 205.292 27.4228C205.299 27.4228 205.303 27.4228 205.31 27.4228C207.82 27.3784 210.223 25.6534 210.223 23.3689H207.19Z" fill="#0D1717"/>
<path opacity="0.75" d="M193.363 16.9238V37.1162" stroke="#0D1717" stroke-miterlimit="10"/>
<path d="M181.717 37.1103V29.377H186.7V30.5051H182.878V32.4174H185.099V33.5432H182.878V35.9845H186.866V37.1103H181.717Z" fill="#0D1717"/>
<path d="M175.557 37.2326C173.558 37.2326 172.287 35.5872 172.287 33.2442C172.287 30.9013 173.558 29.2559 175.557 29.2559C176.816 29.2559 177.656 29.7638 178.185 30.7023L177.17 31.332C176.772 30.7024 176.353 30.4145 175.557 30.4145C174.209 30.4145 173.469 31.5075 173.469 33.2419C173.469 34.9763 174.209 36.0693 175.557 36.0693C176.816 36.0693 177.315 35.2408 177.315 34.335V34.3022H176.055V33.1857H178.497V34.0798C178.494 36.074 177.28 37.2326 175.557 37.2326Z" fill="#0D1717"/>
<path d="M164.42 37.1103V29.377H169.403V30.5051H165.581V32.4174H167.802V33.5432H165.581V35.9845H169.569V37.1103H164.42Z" fill="#0D1717"/>
<path d="M156.047 37.1103V29.377H157.208V35.9728H161.063V37.1103H156.047Z" fill="#0D1717"/>
<path d="M147.673 37.1103V29.377H148.834V35.9728H152.689V37.1103H147.673Z" fill="#0D1717"/>
<path d="M140.925 37.2326C138.971 37.2326 137.644 35.6644 137.644 33.2559C137.644 30.8475 138.992 29.2559 140.946 29.2559C142.912 29.2559 144.239 30.8241 144.239 33.2325C144.239 35.6434 142.891 37.2326 140.925 37.2326ZM140.913 30.4051C139.687 30.4051 138.826 31.4771 138.826 33.2325C138.826 34.988 139.72 36.0834 140.958 36.0834C142.184 36.0834 143.057 35.0114 143.057 33.2559C143.057 31.5005 142.152 30.4051 140.913 30.4051Z" fill="#0D1717"/>
<path d="M132.141 37.2326C130.142 37.2326 128.871 35.5872 128.871 33.2442C128.871 30.9013 130.142 29.2559 132.141 29.2559C133.4 29.2559 134.24 29.7638 134.769 30.7023L133.742 31.3437C133.344 30.7141 132.934 30.4168 132.141 30.4168C130.793 30.4168 130.065 31.5099 130.065 33.2442C130.065 34.9786 130.793 36.0717 132.141 36.0717C132.948 36.0717 133.445 35.7393 133.843 35.1097L134.805 35.751C134.252 36.7036 133.314 37.2326 132.141 37.2326Z" fill="#0D1717"/>
<path d="M118.422 34.0511V37.1103H117.261V34.0511L114.487 29.377H115.847L117.053 31.5092C117.317 31.9844 117.715 32.7568 117.848 33.0447C117.982 32.7568 118.368 32.0171 118.644 31.5209L119.859 29.377H121.195L118.422 34.0511Z" fill="#0D1717"/>
<path d="M109.463 30.5164V37.1122H108.302V30.5164H106.048V29.3789H111.714V30.5164H109.463Z" fill="#0D1717"/>
<path d="M101.51 37.1103V29.377H102.671V37.1103H101.51Z" fill="#0D1717"/>
<path d="M96.5377 37.1107L93.4551 32.261C93.2679 31.9731 93.0011 31.5096 92.8817 31.3107C92.8817 31.5986 92.8934 32.6706 92.8934 33.1012V37.1107H91.7676V29.3773H92.9496L95.8894 34.0936C96.0883 34.4143 96.4207 34.9878 96.5307 35.1867C96.5307 34.8988 96.519 33.7941 96.519 33.3634V29.375H97.6448V37.1083H96.5377V37.1107Z" fill="#0D1717"/>
<path d="M85.0385 37.232C83.1262 37.232 82.1338 35.9938 82.1338 33.8615V29.377H83.2947V33.8288C83.2947 35.287 83.9033 36.0711 85.0619 36.0711C86.2767 36.0711 86.8524 35.3197 86.8524 33.906V29.377H88.0134V33.8849C88.0087 36.05 86.9601 37.232 85.0385 37.232Z" fill="#0D1717"/>
<path d="M77.2391 37.1103V33.0236C77.2391 32.5602 77.2508 31.8861 77.2602 31.6637C77.1712 31.8837 76.9512 32.4361 76.764 32.8785L74.8868 37.232L73.0307 32.8785C72.8435 32.4361 72.6211 31.8837 72.5345 31.6637C72.5462 31.8837 72.5579 32.5578 72.5579 33.0236V37.1103H71.4648V29.377H72.6586L74.3929 33.4987C74.5802 33.9411 74.8236 34.5029 74.9242 34.8235C75.0343 34.5029 75.2566 33.9505 75.4439 33.4987L77.1455 29.377H78.3837V37.1103H77.2391Z" fill="#0D1717"/>
<path d="M66.5129 37.1103V33.0236C66.5129 32.5602 66.5246 31.8861 66.534 31.6637C66.445 31.8837 66.225 32.4361 66.0378 32.8785L64.1606 37.232L62.3045 32.8785C62.1173 32.4361 61.8949 31.8837 61.8083 31.6637C61.82 31.8837 61.8294 32.5578 61.8294 33.0236V37.1103H60.7363V29.377H61.93L63.6644 33.4987C63.8517 33.9411 64.0951 34.5029 64.1957 34.8235C64.3057 34.5029 64.5281 33.9505 64.7153 33.4987L66.417 29.377H67.6551V37.1103H66.5129Z" fill="#0D1717"/>
<path d="M53.9856 37.2326C52.0312 37.2326 50.7041 35.6644 50.7041 33.2559C50.7041 30.8475 52.0523 29.2559 54.0067 29.2559C55.9728 29.2559 57.2999 30.8241 57.2999 33.2325C57.2999 35.6434 55.9517 37.2326 53.9856 37.2326ZM53.9739 30.4051C52.7474 30.4051 51.8861 31.4771 51.8861 33.2325C51.8861 34.988 52.7802 36.0834 54.0184 36.0834C55.2449 36.0834 56.1179 35.0114 56.1179 33.2559C56.1179 31.5005 55.2121 30.4051 53.9739 30.4051Z" fill="#0D1717"/>
<path d="M45.2015 37.2326C43.2026 37.2326 41.9316 35.5872 41.9316 33.2442C41.9316 30.9013 43.2026 29.2559 45.2015 29.2559C46.4607 29.2559 47.301 29.7638 47.8299 30.7023L46.8024 31.3437C46.4045 30.7141 45.9949 30.4168 45.2015 30.4168C43.8533 30.4168 43.1253 31.5099 43.1253 33.2442C43.1253 34.9786 43.8556 36.0717 45.2015 36.0717C46.009 36.0717 46.5052 35.7393 46.9031 35.1097L47.8651 35.751C47.3127 36.7036 46.3741 37.2326 45.2015 37.2326Z" fill="#0D1717"/>
<path d="M184.403 20.5455V16.9434H186.828V26.2753H184.403V22.4508H180.899V26.2753H178.475V16.9434H180.899V20.5455H184.403Z" fill="#0D1717"/>
<path d="M175.315 21.0655C175.289 22.4277 175.191 23.591 174.363 24.7543C173.447 26.0299 172.073 26.587 170.512 26.587C167.579 26.587 165.536 24.5951 165.536 21.66C165.536 18.6266 167.591 16.6348 170.599 16.6348C172.518 16.6348 174.002 17.5008 174.807 19.2469L172.504 20.2112C172.169 19.3194 171.465 18.7249 170.486 18.7249C168.89 18.7249 168.062 20.2463 168.062 21.6717C168.062 23.1206 168.928 24.5928 170.524 24.5928C171.575 24.5928 172.38 24.0474 172.481 22.9708H170.501V21.0655H175.315Z" fill="#0D1717"/>
<path d="M162.43 16.9434V22.191C162.43 23.3917 162.381 24.5807 161.452 25.4842C160.673 26.2519 159.446 26.5234 158.358 26.5234C157.269 26.5234 156.043 26.2519 155.264 25.4842C154.334 24.5807 154.285 23.3917 154.285 22.191V16.9434H156.71V21.8563C156.71 23.0687 156.797 24.3935 158.355 24.3935C159.914 24.3935 160.001 23.0687 160.001 21.8563V16.9434H162.43Z" fill="#0D1717"/>
<path d="M151.165 21.4377C151.165 24.457 149 26.587 146.004 26.587C143.008 26.587 140.843 24.457 140.843 21.4377C140.843 18.6149 143.319 16.6348 146.004 16.6348C148.688 16.6348 151.165 18.6149 151.165 21.4377ZM143.366 21.4494C143.366 23.0574 144.555 24.2347 146.001 24.2347C147.448 24.2347 148.637 23.0597 148.637 21.4494C148.637 20.162 147.448 18.9871 146.001 18.9871C144.555 18.9871 143.366 20.162 143.366 21.4494Z" fill="#0D1717"/>
<path d="M138.612 26.2753H135.592L133.303 22.6848H133.277V26.2753H130.853V16.9434H134.478C136.323 16.9434 137.72 17.8211 137.72 19.8153C137.72 21.1026 137.001 22.2167 135.677 22.4508L138.612 26.2753ZM133.277 21.126H133.511C134.303 21.126 135.194 20.9786 135.194 19.9627C135.194 18.9469 134.303 18.7995 133.511 18.7995H133.277V21.126Z" fill="#0D1717"/>
<path d="M127.681 21.4377C127.681 24.457 125.516 26.587 122.52 26.587C119.524 26.587 117.359 24.457 117.359 21.4377C117.359 18.6149 119.836 16.6348 122.52 16.6348C125.205 16.6348 127.681 18.6149 127.681 21.4377ZM119.883 21.4494C119.883 23.0574 121.072 24.2347 122.518 24.2347C123.967 24.2347 125.154 23.0597 125.154 21.4494C125.154 20.162 123.965 18.9871 122.518 18.9871C121.072 18.9871 119.883 20.162 119.883 21.4494Z" fill="#0D1717"/>
<path d="M107.407 26.2753V16.9434H110.874C112.533 16.9434 113.647 17.587 113.647 19.3682C113.647 20.2108 113.376 20.8896 112.62 21.2735V21.2992C113.956 21.4724 114.525 22.3759 114.525 23.6749C114.525 25.6317 112.854 26.273 111.145 26.273H107.407V26.2753ZM109.832 20.6064H110.104C110.747 20.6064 111.417 20.494 111.417 19.7029C111.417 18.8486 110.661 18.7995 110.005 18.7995H109.832V20.6064ZM109.832 24.4192H110.141C110.86 24.4192 112.072 24.4567 112.072 23.4292C112.072 22.3033 110.871 22.4133 110.08 22.4133H109.832V24.4192Z" fill="#0D1717"/>
<path d="M102.862 19.3437C102.417 18.9715 101.846 18.7258 101.254 18.7258C100.809 18.7258 100.215 18.9856 100.215 19.5052C100.215 20.0506 100.87 20.2612 101.291 20.397L101.909 20.5819C103.208 20.9657 104.212 21.6211 104.212 23.1308C104.212 24.06 103.99 25.0126 103.248 25.6422C102.518 26.2602 101.539 26.52 100.599 26.52C99.4235 26.52 98.272 26.1244 97.3193 25.455L98.3586 23.4983C98.9648 24.0296 99.6833 24.4626 100.512 24.4626C101.081 24.4626 101.687 24.177 101.687 23.5217C101.687 22.8405 100.734 22.6065 100.215 22.4567C98.6933 22.0237 97.6892 21.6281 97.6892 19.8212C97.6892 17.9276 99.0373 16.6895 100.907 16.6895C101.848 16.6895 103 16.9867 103.829 17.4572L102.862 19.3437Z" fill="#0D1717"/>
<path d="M84.79 16.9434H87.2149L91.6574 22.6497H91.6831V16.9434H94.108V26.2753H91.6831L87.2406 20.5572H87.2149V26.2753H84.79V16.9434Z" fill="#0D1717"/>
<path d="M78.3647 18.9984V20.5572H81.1009V22.6123H78.3647V24.2203H81.2483V26.2753H75.9375V16.9434H81.2483V18.9984H78.3647Z" fill="#0D1717"/>
<path d="M69.5131 18.9984V20.5572H72.2493V22.6123H69.5131V24.2203H72.3968V26.2753H67.0859V16.9434H72.3968V18.9984H69.5131Z" fill="#0D1717"/>
<path d="M63.5095 16.9434V22.191C63.5095 23.3917 63.4604 24.5807 62.5312 25.4842C61.7518 26.2519 60.5253 26.5234 59.4369 26.5234C58.3485 26.5234 57.122 26.2519 56.3426 25.4842C55.4134 24.5807 55.3643 23.3917 55.3643 22.191V16.9434H57.7891V21.8563C57.7891 23.0687 57.8757 24.3935 59.4346 24.3935C60.9934 24.3935 61.08 23.0687 61.08 21.8563V16.9434H63.5095Z" fill="#0D1717"/>
<path d="M50.3878 26.8585L49.6459 25.9808C48.9273 26.4138 48.087 26.587 47.0829 26.587C44.0869 26.587 41.9219 24.457 41.9219 21.4377C41.9219 18.6149 44.3982 16.6348 47.0829 16.6348C49.9923 16.6348 52.2439 18.6032 52.2439 21.6343C52.2439 22.8725 51.8226 23.9491 51.0432 24.9135L52.6161 26.5098L50.3878 26.8585ZM49.2854 23.0199C49.571 22.6244 49.7184 22.1164 49.7184 21.646C49.7184 20.2463 48.5551 18.9847 47.0946 18.9847C45.6458 18.9847 44.445 20.1597 44.445 21.447C44.445 23.055 45.6458 24.2324 47.0946 24.2324C47.3427 24.2324 47.5908 24.1949 47.8366 24.1083L46.3386 22.622L48.6277 22.3365L49.2854 23.0199Z" fill="#0D1717"/>
<path d="M29.439 27.6519C30.0171 26.071 30.3106 24.4122 30.3106 22.7156C30.3106 18.9243 28.8475 15.3466 26.1925 12.6383C23.542 9.93437 20.0021 8.40231 16.222 8.32227H16.2197V15.8002C19.8019 16.136 22.5014 19.1045 22.5014 22.7089C22.5014 26.3133 19.8019 29.2796 16.2197 29.6176V37.0955H16.222C18.1987 37.0533 20.1021 36.6219 21.881 35.8103L22.9105 37.0577H36.0764L29.439 27.6519Z" fill="#0D1717"/>
<path d="M15.2752 29.6229C11.6997 29.2916 8.90018 26.372 8.90018 22.7097C8.90018 19.0475 11.6997 16.1279 15.2752 15.7966V12.3145C9.64952 12.4901 5.14675 17.1041 5.14453 22.772H5.14676C5.14898 28.3932 9.70511 32.9694 15.2752 33.214V29.6229Z" fill="#0D1717"/>
<path d="M15.2729 8.29492C11.4884 8.37719 7.94395 9.91592 5.29121 12.6243C2.63402 15.3348 1.1709 18.9192 1.1709 22.7149C1.17312 26.5106 2.63624 30.0928 5.29121 32.8011C7.94395 35.505 11.4884 37.0415 15.2707 37.1238H15.2729V33.7684C9.33148 33.6327 4.53964 28.7097 4.53964 22.7371C4.53964 16.7646 9.3337 11.8949 15.2751 11.7593V8.29492H15.2729Z" fill="#0D1717"/>
</svg>
