<svg id="eqtJsTML87a1" xmlns="http://www.w3.org/2000/svg" xmlns:xlink="http://www.w3.org/1999/xlink" viewBox="0 0 946.42 133.63" shape-rendering="geometricPrecision" text-rendering="geometricPrecision">
<style><![CDATA[
#eqtJsTML87a42 {animation: eqtJsTML87a42_c_o 10000ms linear 1 normal forwards}@keyframes eqtJsTML87a42_c_o { 0% {opacity: 1} 10% {opacity: 1;animation-timing-function: cubic-bezier(0,0,0.58,1)} 20% {opacity: 0} 23% {opacity: 0;animation-timing-function: cubic-bezier(0.42,0,1,1)} 31% {opacity: 1} 100% {opacity: 1}} #eqtJsTML87a43 {animation: eqtJsTML87a43_c_o 10000ms linear 1 normal forwards}@keyframes eqtJsTML87a43_c_o { 0% {opacity: 1} 10% {opacity: 1;animation-timing-function: cubic-bezier(0,0,0.58,1)} 20% {opacity: 0} 23% {opacity: 0;animation-timing-function: cubic-bezier(0.42,0,1,1)} 33% {opacity: 1} 100% {opacity: 1}} #eqtJsTML87a44_tr {animation: eqtJsTML87a44_tr__tr 10000ms linear 1 normal forwards}@keyframes eqtJsTML87a44_tr__tr { 0% {transform: translate(90.539997px,93.265003px) rotate(0deg)} 10% {transform: translate(90.539997px,93.265003px) rotate(0deg);animation-timing-function: cubic-bezier(0.42,0,0.58,1)} 20% {transform: translate(90.539997px,93.265003px) rotate(180deg)} 23% {transform: translate(90.539997px,93.265003px) rotate(180deg);animation-timing-function: cubic-bezier(0.42,0,0.58,1)} 33% {transform: translate(90.539997px,93.265003px) rotate(360deg)} 100% {transform: translate(90.539997px,93.265003px) rotate(360deg)}} #eqtJsTML87a47_tr {animation: eqtJsTML87a47_tr__tr 10000ms linear 1 normal forwards}@keyframes eqtJsTML87a47_tr__tr { 0% {transform: translate(90.535px,93.160002px) rotate(0deg)} 10% {transform: translate(90.535px,93.160002px) rotate(0deg);animation-timing-function: cubic-bezier(0.42,0,0.58,1)} 20% {transform: translate(90.535px,93.160002px) rotate(-180deg)} 23% {transform: translate(90.535px,93.160002px) rotate(-180deg);animation-timing-function: cubic-bezier(0.42,0,0.58,1)} 33% {transform: translate(90.535px,93.160002px) rotate(-360deg)} 100% {transform: translate(90.535px,93.160002px) rotate(-360deg)}}
]]></style>
<g transform="translate(-24.581893-29.468211)"><g><g><polygon points="954.1,114.15 944.37,134 934.63,114.15 922.74,114.15 938.42,146.13 938.42,157.42 950.32,157.42 950.32,146.13 966,114.15" fill="#fff"/><polygon points="910.84,114.15 910.84,137.34 890.16,114.15 879.47,114.15 879.47,114.15 879.47,157.42 891.37,157.42 891.37,134.23 911.76,157.42 922.74,157.42 922.74,114.15" fill="#fff"/><path d="M965.99,95.98c0-1.57,0-3.15,0-4.72c0-1.44,0-2.87,0-4.26v0v0c0-8.26,0-15.14,0-15.14h-11.64-.26v15.14v8.98c0,1.06-.16,2.02-.5,2.89-.42,1.11-1.12,2.08-2.1,2.92-1.83,1.56-4.49,2.5-7.12,2.51v0v0c0,0-.01,0-.01,0s-.01,0-.01,0v0v0c-2.63-.01-5.29-.94-7.12-2.51-.98-.84-1.68-1.81-2.1-2.92-.33-.87-.5-1.83-.5-2.89v-8.98-15.14h-.26-11.64c0,0,0,6.88,0,15.14v0v0c0,1.39,0,2.82,0,4.26c0,1.57,0,3.15,0,4.72v2.89v0c0,9.57,10.33,17.17,21.07,17.32.11,0,.22,0,.33,0c.04,0,.08,0,.13,0c.03,0,.05,0,.08,0v0c0,0,.01,0,.01,0s.01,0,.01,0c.01,0,.01,0,.01,0v0c.02,0,.05,0,.07,0c.04,0,.08,0,.13,0c.11,0,.22,0,.33,0c10.74-.15,21.07-7.53,21.07-17.32v0-2.89Z" fill="#fff"/><path d="M909.78,98.87c-1.92,3.2-5.35,5.35-9.27,5.41-.05,0-.1,0-.15,0-6.1,0-11.05-5.08-11.05-11.34s4.95-11.34,11.05-11.34c.05,0,.1,0,.15,0c3.92.05,7.35,2.2,9.27,5.41h12.96c0-9.76-10.28-17.13-20.99-17.32-.03,0-.05,0-.08,0-.11,0-.22,0-.33,0-.04,0-.09,0-.13,0-.02,0-.05,0-.07,0v0c0,0-.01,0-.01,0s-.01,0-.01,0-.01,0-.01,0v0c-.03,0-.05,0-.08,0-.04,0-.08,0-.13,0-.11,0-.22,0-.33,0h-.87c-8.51,0-15.96,4.58-20.01,11.4-2.06,3.47-3.24,7.52-3.24,11.85v0c0,0,0,0,0,0s0,0,0,0v0c0,4.33,1.19,8.38,3.24,11.85c4.05,6.83,11.5,11.4,20.01,11.4h.87c.11,0,.22,0,.33,0c.04,0,.09,0,.13,0c.03,0,.05,0,.08,0v0c0,0,.01,0,.01,0s.01,0,.01,0c.01,0,.01,0,.01,0v0c.02,0,.05,0,.07,0c.04,0,.09,0,.13,0c.11,0,.22,0,.33,0c.03,0,.05,0,.08,0c10.72-.19,20.99-7.56,20.99-17.32h-12.96Z" fill="#fff"/></g><line x1="850.71" y1="71.33" x2="850.71" y2="157.6" opacity="0.75" fill="none" stroke="#fff" stroke-miterlimit="10"/><g><path d="M800.95,157.58v-33.04h21.29v4.82h-16.33v8.17h9.49v4.81h-9.49v10.43h17.04v4.81h-22Z" fill="#fff"/><path d="M774.63,158.1c-8.54,0-13.97-7.03-13.97-17.04s5.43-17.04,13.97-17.04c5.38,0,8.97,2.17,11.23,6.18l-4.34,2.69c-1.7-2.69-3.49-3.92-6.89-3.92-5.76,0-8.92,4.67-8.92,12.08s3.16,12.08,8.92,12.08c5.38,0,7.51-3.54,7.51-7.41v-.14h-5.38v-4.77h10.43v3.82c-.01,8.52-5.2,13.47-12.56,13.47Z" fill="#fff"/><path d="M727.05,157.58v-33.04h21.29v4.82h-16.33v8.17h9.49v4.81h-9.49v10.43h17.04v4.81h-22Z" fill="#fff"/><path d="M691.28,157.58v-33.04h4.96v28.18h16.47v4.86h-21.43Z" fill="#fff"/><path d="M655.5,157.58v-33.04h4.96v28.18h16.47v4.86h-21.43Z" fill="#fff"/><path d="M626.67,158.1c-8.35,0-14.02-6.7-14.02-16.99s5.76-17.09,14.11-17.09c8.4,0,14.07,6.7,14.07,16.99c0,10.3-5.76,17.09-14.16,17.09Zm-.05-29.17c-5.24,0-8.92,4.58-8.92,12.08s3.82,12.18,9.11,12.18c5.24,0,8.97-4.58,8.97-12.08s-3.87-12.18-9.16-12.18Z" fill="#fff"/><path d="M589.14,158.1c-8.54,0-13.97-7.03-13.97-17.04s5.43-17.04,13.97-17.04c5.38,0,8.97,2.17,11.23,6.18l-4.39,2.74c-1.7-2.69-3.45-3.96-6.84-3.96-5.76,0-8.87,4.67-8.87,12.08s3.11,12.08,8.87,12.08c3.45,0,5.57-1.42,7.27-4.11l4.11,2.74c-2.36,4.07-6.37,6.33-11.38,6.33Z" fill="#fff"/><path d="M530.53,144.51v13.07h-4.96v-13.07l-11.85-19.97h5.81l5.15,9.11c1.13,2.03,2.83,5.33,3.4,6.56.57-1.23,2.22-4.39,3.4-6.51l5.19-9.16h5.71l-11.85,19.97Z" fill="#fff"/><path d="M492.25,129.41v28.18h-4.96v-28.18h-9.63v-4.86h24.21v4.86h-9.62Z" fill="#fff"/><path d="M458.27,157.58v-33.04h4.96v33.04h-4.96Z" fill="#fff"/><path d="M437.03,157.58l-13.17-20.72c-.8-1.23-1.94-3.21-2.45-4.06c0,1.23.05,5.81.05,7.65v17.13h-4.81v-33.04h5.05l12.56,20.15c.85,1.37,2.27,3.82,2.74,4.67c0-1.23-.05-5.95-.05-7.79v-17.04h4.81v33.04h-4.73Z" fill="#fff"/><path d="M387.9,158.1c-8.17,0-12.41-5.29-12.41-14.4v-19.16h4.96v19.02c0,6.23,2.6,9.58,7.55,9.58c5.19,0,7.65-3.21,7.65-9.25v-19.35h4.96v19.26c-.02,9.25-4.5,14.3-12.71,14.3Z" fill="#fff"/><path d="M354.58,157.58v-17.46c0-1.98.05-4.86.09-5.81-.38.94-1.32,3.3-2.12,5.19l-8.02,18.6-7.93-18.6c-.8-1.89-1.75-4.25-2.12-5.19.05.94.1,3.82.1,5.81v17.46h-4.67v-33.04h5.1l7.41,17.61c.8,1.89,1.84,4.29,2.27,5.66.47-1.37,1.42-3.73,2.22-5.66l7.27-17.61h5.29v33.04h-4.89Z" fill="#fff"/><path d="M308.75,157.58v-17.46c0-1.98.05-4.86.09-5.81-.38.94-1.32,3.3-2.12,5.19l-8.02,18.6-7.93-18.6c-.8-1.89-1.75-4.25-2.12-5.19.05.94.09,3.82.09,5.81v17.46h-4.67v-33.04h5.1l7.41,17.61c.8,1.89,1.84,4.29,2.27,5.66.47-1.37,1.42-3.73,2.22-5.66l7.27-17.61h5.29v33.04h-4.88Z" fill="#fff"/><path d="M255.23,158.1c-8.35,0-14.02-6.7-14.02-16.99s5.76-17.09,14.11-17.09c8.4,0,14.07,6.7,14.07,16.99c0,10.3-5.76,17.09-14.16,17.09Zm-.05-29.17c-5.24,0-8.92,4.58-8.92,12.08s3.82,12.18,9.11,12.18c5.24,0,8.97-4.58,8.97-12.08s-3.87-12.18-9.16-12.18Z" fill="#fff"/><path d="M217.7,158.1c-8.54,0-13.97-7.03-13.97-17.04s5.43-17.04,13.97-17.04c5.38,0,8.97,2.17,11.23,6.18l-4.39,2.74c-1.7-2.69-3.45-3.96-6.84-3.96-5.76,0-8.87,4.67-8.87,12.08s3.12,12.08,8.87,12.08c3.45,0,5.57-1.42,7.27-4.11l4.11,2.74c-2.36,4.07-6.37,6.33-11.38,6.33Z" fill="#fff"/></g><g><path d="M812.43,86.81v-15.39h10.36v39.87h-10.36v-16.34h-14.97v16.34h-10.36v-39.87h10.36v15.39h14.97Z" fill="#fff"/><path d="M773.6,89.03c-.11,5.82-.53,10.79-4.07,15.76-3.91,5.45-9.78,7.83-16.45,7.83-12.53,0-21.26-8.51-21.26-21.05c0-12.96,8.78-21.47,21.63-21.47c8.2,0,14.54,3.7,17.98,11.16l-9.84,4.12c-1.43-3.81-4.44-6.35-8.62-6.35-6.82,0-10.36,6.5-10.36,12.59c0,6.19,3.7,12.48,10.52,12.48c4.49,0,7.93-2.33,8.36-6.93h-8.46v-8.14h20.57Z" fill="#fff"/><path d="M718.55,71.42v22.42c0,5.13-.21,10.21-4.18,14.07-3.33,3.28-8.57,4.44-13.22,4.44s-9.89-1.16-13.22-4.44c-3.97-3.86-4.18-8.94-4.18-14.07v-22.42h10.36v20.99c0,5.18.37,10.84,7.03,10.84s7.03-5.66,7.03-10.84v-20.99h10.38Z" fill="#fff"/><path d="M670.42,90.62c0,12.9-9.25,22-22.05,22s-22.05-9.1-22.05-22c0-12.06,10.58-20.52,22.05-20.52s22.05,8.46,22.05,20.52Zm-33.32.05c0,6.87,5.08,11.9,11.26,11.9s11.26-5.02,11.26-11.9c0-5.5-5.08-10.52-11.26-10.52s-11.26,5.02-11.26,10.52Z" fill="#fff"/><path d="M616.79,111.29h-12.9l-9.78-15.34h-.11v15.34h-10.36v-39.87h15.49c7.88,0,13.85,3.75,13.85,12.27c0,5.5-3.07,10.26-8.73,11.26l12.54,16.34ZM594,89.29h1c3.38,0,7.19-.63,7.19-4.97s-3.81-4.97-7.19-4.97h-1v9.94Z" fill="#fff"/><path d="M570.09,90.62c0,12.9-9.25,22-22.05,22s-22.05-9.1-22.05-22c0-12.06,10.58-20.52,22.05-20.52s22.05,8.46,22.05,20.52Zm-33.32.05c0,6.87,5.08,11.9,11.26,11.9c6.19,0,11.26-5.02,11.26-11.9c0-5.5-5.08-10.52-11.26-10.52s-11.26,5.02-11.26,10.52Z" fill="#fff"/><path d="M483.47,111.29v-39.87h14.81c7.09,0,11.85,2.75,11.85,10.36c0,3.6-1.16,6.5-4.39,8.14v.11c5.71.74,8.14,4.6,8.14,10.15c0,8.36-7.14,11.1-14.44,11.1h-15.97Zm10.36-24.22h1.16c2.75,0,5.61-.48,5.61-3.86c0-3.65-3.23-3.86-6.03-3.86h-.74v7.72Zm0,16.29h1.32c3.07,0,8.25.16,8.25-4.23c0-4.81-5.13-4.34-8.51-4.34h-1.06v8.57Z" fill="#fff"/><path d="M464.05,81.68c-1.9-1.59-4.34-2.64-6.87-2.64-1.9,0-4.44,1.11-4.44,3.33c0,2.33,2.8,3.23,4.6,3.81l2.64.79c5.55,1.64,9.84,4.44,9.84,10.89c0,3.97-.95,8.04-4.12,10.73-3.12,2.64-7.3,3.75-11.32,3.75-5.02,0-9.94-1.69-14.01-4.55l4.44-8.36c2.59,2.27,5.66,4.12,9.2,4.12c2.43,0,5.02-1.22,5.02-4.02c0-2.91-4.07-3.91-6.29-4.55-6.5-1.85-10.79-3.54-10.79-11.26c0-8.09,5.76-13.38,13.75-13.38c4.02,0,8.94,1.27,12.48,3.28l-4.13,8.06Z" fill="#fff"/><path d="M386.84,71.42h10.36L416.18,95.8h.11v-24.38h10.36v39.87h-10.36L397.31,86.86h-.11v24.43h-10.36v-39.87Z" fill="#fff"/><path d="M359.39,80.2v6.66h11.69v8.78h-11.69v6.87h12.32v8.78h-22.69v-39.87h22.69v8.78h-12.32Z" fill="#fff"/><path d="M321.57,80.2v6.66h11.69v8.78h-11.69v6.87h12.32v8.78h-22.69v-39.87h22.69v8.78h-12.32Z" fill="#fff"/><path d="M295.92,71.42v22.42c0,5.13-.21,10.21-4.18,14.07-3.33,3.28-8.57,4.44-13.22,4.44s-9.89-1.16-13.22-4.44c-3.97-3.86-4.18-8.94-4.18-14.07v-22.42h10.36v20.99c0,5.18.37,10.84,7.03,10.84s7.03-5.66,7.03-10.84v-20.99h10.38Z" fill="#fff"/><path d="M239.86,113.78l-3.17-3.75c-3.07,1.85-6.66,2.59-10.95,2.59-12.8,0-22.05-9.1-22.05-22c0-12.06,10.58-20.52,22.05-20.52c12.43,0,22.05,8.41,22.05,21.36c0,5.29-1.8,9.89-5.13,14.01l6.72,6.82-9.52,1.49Zm-4.71-16.4c1.22-1.69,1.85-3.86,1.85-5.87c0-5.98-4.97-11.37-11.21-11.37-6.19,0-11.32,5.02-11.32,10.52c0,6.87,5.13,11.9,11.32,11.9c1.06,0,2.12-.16,3.17-.53l-6.4-6.35l9.78-1.22l2.81,2.92Z" fill="#fff"/></g></g><g transform="matrix(.950009 0 0 0.950009 5.206562 7.657162)"><path id="eqtJsTML87a42" d="M152.79,115.27c2.6-7.11,3.92-14.57,3.92-22.2c0-17.05-6.58-33.14-18.52-45.32-11.92-12.16-27.84-19.05-44.84-19.41h-.01v33.63c16.11,1.51,28.25,14.86,28.25,31.07s-12.14,29.55-28.25,31.07v33.63h.01c8.89-.19,17.45-2.13,25.45-5.78l4.63,5.61h59.21l-29.85-42.3Z" fill="#fff"/><g id="eqtJsTML87a43"><g id="eqtJsTML87a44_tr" transform="translate(90.539997,93.265003) rotate(0)"><g transform="translate(-90.539997,-93.265003)"><rect width="94" height="94" rx="0" ry="0" transform="translate(43.55 46.24)" fill="none"/><path d="M89.09,124.14c-16.08-1.49-28.67-14.62-28.67-31.09s12.59-29.6,28.67-31.09v-15.66c-25.3.79-45.55,21.54-45.56,47.03h.01c.01,25.28,20.5,45.86,45.55,46.96v-16.15Z" fill="#fff"/></g></g><g id="eqtJsTML87a47_tr" transform="translate(90.535,93.160002) rotate(0)"><g transform="translate(-90.535,-93.160002)"><rect width="129.75" height="129.75" rx="0" ry="0" transform="translate(25.66 28.35)" fill="none"/><path d="M89.08,28.22c-17.02.37-32.96,7.29-44.89,19.47C32.24,59.88,25.66,76,25.66,93.07c.01,17.07,6.59,33.18,18.53,45.36c11.93,12.16,27.87,19.07,44.88,19.44h.01v-15.09c-26.72-.61-48.27-22.75-48.27-49.61s21.56-48.76,48.28-49.37v-15.58h-.01Z" fill="#fff"/></g></g></g></g></g></svg>
