<svg width="375" height="50" viewBox="0 0 375 50" fill="none" xmlns="http://www.w3.org/2000/svg">
<g clip-path="url(#clip0_410_22084)">
<path d="M55.4557 10.4292C50.4142 10.4292 47.4446 12.5011 47.4446 16.5066C47.4446 20.5812 50.3452 22.5839 55.4557 22.5839C59.6684 22.5839 61.6021 21.479 62.8452 20.3049L64.2954 22.0315C62.3617 23.758 59.5993 24.5867 55.5247 24.5867C49.3783 24.5867 44.8203 22.0315 44.8203 16.5066C44.8203 11.1199 49.4474 8.35742 55.5247 8.35742C59.3921 8.35742 62.0855 9.04803 64.0883 10.7055L62.5689 12.432C61.1187 11.1889 59.3231 10.4292 55.4557 10.4292Z" fill="#73797C" stroke="#73797C" stroke-width="0.7548" stroke-miterlimit="10"/>
<path d="M74.1025 24.5874C69.1991 24.5874 65.7461 22.3084 65.7461 18.6482C65.7461 15.1261 69.1991 12.709 74.1025 12.709C79.0058 12.709 82.3897 15.0571 82.3897 18.5791C82.3897 22.2394 79.0748 24.5874 74.1025 24.5874ZM74.0334 22.5847C77.8317 22.5847 79.8345 21.2035 79.8345 18.5791C79.8345 16.0239 77.8317 14.5736 74.0334 14.5736C70.235 14.5736 68.2323 16.0239 68.2323 18.5791C68.2323 21.2035 70.235 22.5847 74.0334 22.5847Z" fill="#73797C" stroke="#73797C" stroke-width="0.7548" stroke-miterlimit="10"/>
<path d="M85.2207 8.70117H87.6378V24.3089H85.2207V8.70117Z" fill="#73797C" stroke="#73797C" stroke-width="0.7548" stroke-miterlimit="10"/>
<path d="M91.5059 8.70117H93.923V24.3089H91.5059V8.70117Z" fill="#73797C" stroke="#73797C" stroke-width="0.7548" stroke-miterlimit="10"/>
<path d="M99.3099 19.546C99.7242 21.6178 101.589 22.6537 104.973 22.6537C107.804 22.6537 109.462 21.8941 110.429 21.2035L111.672 22.7919C110.014 24.035 107.804 24.5874 104.973 24.5874C99.7242 24.5874 96.6855 22.4466 96.6855 18.6482C96.6855 14.9189 99.7933 12.709 104.489 12.709C108.771 12.709 112.155 14.0902 112.155 18.7173C112.155 19.0626 112.086 19.546 112.086 19.546H99.3099ZM99.3099 17.6814H109.738C109.393 15.2642 107.321 14.6427 104.558 14.6427C101.382 14.6427 99.7242 15.6095 99.3099 17.6814Z" fill="#73797C" stroke="#73797C" stroke-width="0.7548" stroke-miterlimit="10"/>
<path d="M121.409 20.7892C119.613 20.7892 118.094 20.513 116.989 20.0986C116.367 20.3749 116.16 20.6511 116.16 21.1346C116.16 21.9633 117.058 22.2395 119.613 22.2395H125C128.522 22.2395 130.318 22.8611 130.318 25.3473C130.318 28.1787 127.693 29.3528 121.271 29.3528C115.746 29.3528 113.19 28.2478 113.19 26.0379C113.19 24.8638 114.019 24.0351 115.262 23.5517C114.503 23.2064 114.088 22.6539 114.088 21.7561C114.088 20.6511 114.917 19.8915 115.815 19.408C114.917 18.7174 114.434 17.8196 114.434 16.7837C114.434 14.4357 116.713 12.7091 121.478 12.7091C123.135 12.7091 124.309 12.8473 125.345 13.1235L130.525 12.502V14.3666L127.693 14.5738C128.384 15.0572 128.798 15.8169 128.798 16.6456C128.66 19.2699 126.174 20.7892 121.409 20.7892ZM116.643 24.1042C115.884 24.4495 115.4 24.9329 115.4 25.5544C115.4 26.7975 116.92 27.4191 121.201 27.4191C126.312 27.4191 127.831 26.6594 127.831 25.4854C127.831 24.5876 127.348 24.3113 124.793 24.3113H119.061C118.094 24.2423 117.403 24.1732 116.643 24.1042ZM121.34 18.9937C124.516 18.9937 126.243 18.1649 126.243 16.7837C126.243 15.4025 124.516 14.5738 121.34 14.5738C118.163 14.5738 116.782 15.4025 116.782 16.7837C116.782 18.1649 118.163 18.9937 121.34 18.9937Z" fill="#73797C" stroke="#73797C" stroke-width="0.7548" stroke-miterlimit="10"/>
<path d="M133.494 19.546C133.909 21.6178 135.773 22.6537 139.157 22.6537C141.989 22.6537 143.646 21.8941 144.613 21.2035L145.856 22.7919C144.199 24.035 141.989 24.5874 139.157 24.5874C133.909 24.5874 130.87 22.4466 130.87 18.6482C130.87 14.9189 133.978 12.709 138.674 12.709C142.956 12.709 146.34 14.0902 146.34 18.7173C146.34 19.0626 146.271 19.546 146.271 19.546H133.494ZM133.494 17.6814H143.923C143.508 15.2642 141.505 14.6427 138.743 14.6427C135.566 14.6427 133.909 15.6095 133.494 17.6814Z" fill="#73797C" stroke="#73797C" stroke-width="0.7548" stroke-miterlimit="10"/>
<path d="M163.467 24.5874C158.563 24.5874 155.11 22.3084 155.11 18.6482C155.11 15.1261 158.563 12.709 163.467 12.709C168.37 12.709 171.754 15.0571 171.754 18.5791C171.823 22.2394 168.439 24.5874 163.467 24.5874ZM163.467 22.5847C167.265 22.5847 169.268 21.2035 169.268 18.5791C169.268 16.0239 167.265 14.5736 163.467 14.5736C159.668 14.5736 157.666 16.0239 157.666 18.5791C157.597 21.2035 159.668 22.5847 163.467 22.5847Z" fill="#73797C" stroke="#73797C" stroke-width="0.7548" stroke-miterlimit="10"/>
<path d="M183.633 10.6357C183.012 10.5667 182.528 10.4976 181.423 10.4976C178.868 10.4976 178.177 11.5335 178.108 13.0529H183.357V15.0556H178.108V24.3098H175.691V15.0556H172.929V13.0529H175.691C175.76 10.3595 177.418 8.42578 181.147 8.42578C182.321 8.42578 182.873 8.49484 183.633 8.63296V10.6357Z" fill="#73797C" stroke="#73797C" stroke-width="0.7548" stroke-miterlimit="10"/>
<path d="M201.104 17.4044L196.201 17.1972C192.126 16.99 189.847 15.9541 189.847 13.1226C189.847 10.0149 193.093 8.35742 198.411 8.35742C203.038 8.35742 205.455 9.11709 207.458 10.153L206.422 12.0867C204.695 11.1889 202.624 10.3602 198.411 10.3602C194.336 10.3602 192.403 11.258 192.403 12.8464C192.403 14.2966 193.784 14.7801 196.615 14.8491L201.519 15.0563C205.662 15.2635 208.356 16.0922 208.356 19.3381C208.356 22.9983 204.281 24.4486 199.171 24.4486C194.336 24.4486 191.436 23.5508 189.295 22.1696L190.607 20.3049C192.057 21.2718 194.751 22.4458 199.171 22.4458C203.798 22.4458 205.731 21.2718 205.731 19.5453C205.731 17.9569 204.281 17.5425 201.104 17.4044Z" fill="#73797C" stroke="#73797C" stroke-width="0.7548" stroke-miterlimit="10"/>
<path d="M217.264 24.587C213.811 24.587 212.43 22.5152 212.43 19.8219V15.0567H209.529V13.0539H212.43V9.66992H214.847V13.0539H219.819V15.0567H214.847V19.8219C214.847 21.4793 215.261 22.5152 217.54 22.5152C219.06 22.5152 219.405 22.3771 220.027 22.308V24.3799C219.267 24.4489 218.853 24.587 217.264 24.587Z" fill="#73797C" stroke="#73797C" stroke-width="0.7548" stroke-miterlimit="10"/>
<path d="M229.972 12.709C234.047 12.709 236.464 13.883 236.464 17.6123V20.8582C236.464 22.6537 236.602 23.6896 237.016 24.1731V24.3112H234.599C234.461 24.035 234.323 23.5515 234.254 22.93C233.08 23.6206 230.939 24.5874 227.348 24.5874C224.447 24.5874 221.754 23.9659 221.754 21.1344C221.754 17.7504 226.381 17.5432 234.047 17.1979C233.909 15.2642 232.665 14.7808 229.558 14.7808C227.417 14.7808 225.345 15.1261 223.342 15.5405L222.997 13.6068C224.654 13.1924 226.864 12.709 229.972 12.709ZM233.978 18.8554C225.967 19.2698 224.171 19.546 224.171 21.1344C224.171 22.3084 225.414 22.6537 227.348 22.6537C230.732 22.6537 232.735 21.825 233.978 21.2035V18.8554Z" fill="#73797C" stroke="#73797C" stroke-width="0.7548" stroke-miterlimit="10"/>
<path d="M245.994 24.587C242.541 24.587 241.159 22.5152 241.159 19.8219V15.0567H238.259V13.0539H241.159V9.66992H243.576V13.0539H248.549V15.0567H243.576V19.8219C243.576 21.4793 243.991 22.5152 246.27 22.5152C247.789 22.5152 248.134 22.3771 248.756 22.308V24.3799C247.996 24.4489 247.582 24.587 245.994 24.587Z" fill="#73797C" stroke="#73797C" stroke-width="0.7548" stroke-miterlimit="10"/>
<path d="M252.83 19.546C253.245 21.6178 255.109 22.6537 258.493 22.6537C261.325 22.6537 262.982 21.8941 263.949 21.2035L265.192 22.7919C263.535 24.035 261.325 24.5874 258.493 24.5874C253.245 24.5874 250.206 22.4466 250.206 18.6482C250.206 14.9189 253.314 12.709 258.01 12.709C262.292 12.709 265.676 14.0902 265.676 18.7173C265.676 19.0626 265.607 19.546 265.607 19.546H252.83ZM252.83 17.6814H263.259C262.913 15.2642 260.841 14.6427 258.079 14.6427C254.902 14.6427 253.245 15.6095 252.83 17.6814Z" fill="#73797C" stroke="#73797C" stroke-width="0.7548" stroke-miterlimit="10"/>
<path d="M268.37 13.0536H270.787V14.711C272.514 13.8133 274.931 12.7773 278.177 12.7773C281.146 12.7773 283.08 14.1586 283.08 17.7497V24.3105H280.663V17.6807C280.663 15.4707 279.627 14.7801 277.555 14.7801C274.724 14.7801 272.928 15.4017 270.856 16.2994V24.2414H268.439L268.37 13.0536Z" fill="#73797C" stroke="#73797C" stroke-width="0.7548" stroke-miterlimit="10"/>
<path d="M294.129 8.63281H296.684V24.2405H294.129V8.63281Z" fill="#73797C" stroke="#73797C" stroke-width="0.7548" stroke-miterlimit="10"/>
<path d="M306.974 24.5874C303.452 24.5874 301.173 23.9659 299.792 23.0681L300.759 21.2725C301.726 21.825 303.867 22.6537 307.043 22.6537C310.427 22.6537 312.223 22.0322 312.223 20.8582C312.223 20.0294 311.394 19.6841 309.322 19.6151L305.386 19.4769C302.278 19.4079 300.275 18.7173 300.275 16.2311C300.275 13.814 302.831 12.709 307.112 12.709C309.944 12.709 312.016 13.0543 313.88 14.0211L312.983 15.8167C311.532 15.1952 309.944 14.7117 307.112 14.7117C303.798 14.7117 302.623 15.1952 302.623 16.162C302.623 16.9908 303.176 17.3361 305.455 17.4051L309.461 17.5432C312.706 17.6123 314.64 18.372 314.64 20.72C314.502 23.2753 311.878 24.5874 306.974 24.5874Z" fill="#73797C" stroke="#73797C" stroke-width="0.7548" stroke-miterlimit="10"/>
<path d="M317.195 8.70117H319.612V24.3089H317.195V8.70117Z" fill="#73797C" stroke="#73797C" stroke-width="0.7548" stroke-miterlimit="10"/>
<path d="M330.593 12.709C334.668 12.709 337.016 13.883 337.016 17.6123V20.8582C337.016 22.6537 337.223 23.6896 337.568 24.1731V24.3112H335.151C335.013 24.035 334.875 23.5515 334.806 22.93C333.632 23.6206 331.491 24.5874 327.9 24.5874C324.999 24.5874 322.306 23.9659 322.306 21.1344C322.306 17.7504 326.933 17.5432 334.598 17.1979C334.46 15.2642 333.217 14.7808 330.11 14.7808C327.969 14.7808 325.897 15.1261 323.894 15.5405L323.549 13.6068C325.275 13.1924 327.485 12.709 330.593 12.709ZM334.598 18.8554C326.587 19.2698 324.792 19.546 324.792 21.1344C324.792 22.3084 326.035 22.6537 327.969 22.6537C331.353 22.6537 333.355 21.825 334.598 21.2035V18.8554Z" fill="#73797C" stroke="#73797C" stroke-width="0.7548" stroke-miterlimit="10"/>
<path d="M340.607 13.0536H342.955V14.711C344.682 13.8133 347.099 12.7773 350.345 12.7773C353.315 12.7773 355.248 14.1586 355.248 17.7497V24.3105H352.831V17.6807C352.831 15.4707 351.795 14.7801 349.723 14.7801C346.892 14.7801 345.096 15.4017 343.025 16.2994V24.2414H340.607V13.0536Z" fill="#73797C" stroke="#73797C" stroke-width="0.7548" stroke-miterlimit="10"/>
<path d="M364.847 24.5858C360.773 24.5858 357.941 22.514 357.941 18.7157C357.941 14.8483 361.118 12.7074 365.193 12.7074C368.37 12.7074 369.751 13.398 371.201 14.1577V8.63281H373.618V24.2405H371.27V22.8593C369.475 23.8952 367.679 24.5858 364.847 24.5858ZM371.132 15.8842C369.336 15.1936 367.955 14.6411 365.4 14.6411C362.361 14.6411 360.428 15.9533 360.428 18.7157C360.428 21.4781 362.361 22.7212 365.193 22.7212C367.61 22.7212 369.129 22.1687 371.132 21.2709V15.8842Z" fill="#73797C" stroke="#73797C" stroke-width="0.7548" stroke-miterlimit="10"/>
<path d="M50.8973 34.5968H44.4746V33.1465H58.9774V34.5968H52.5547V46.5443H50.9663C50.8973 46.6133 50.8973 34.5968 50.8973 34.5968Z" fill="#8AC2EB" stroke="#8AC2EB" stroke-width="0.3774" stroke-miterlimit="10"/>
<path d="M60.7725 33.2168H62.2918V38.3964C63.3277 37.4986 64.6399 36.6698 66.3664 36.6698C67.5404 36.6698 70.3719 36.9461 70.3719 40.261V46.6146H68.8526V40.5372C68.9216 38.2582 67.2642 37.9129 66.1592 37.9129C64.5017 37.9129 63.1896 38.9488 62.2918 39.8466V46.6146H60.7725V33.2168Z" fill="#8AC2EB" stroke="#8AC2EB" stroke-width="0.3774" stroke-miterlimit="10"/>
<path d="M82.8724 44.6107C81.9055 45.6466 80.9387 46.8897 77.6238 46.8897C74.3779 46.8897 72.168 44.6797 72.168 41.7101C72.168 38.6714 74.447 36.5996 77.4166 36.5996C80.4553 36.5996 83.1486 38.188 83.0796 42.0554H73.6182C73.7564 43.851 75.2066 45.5775 77.6928 45.5775C80.179 45.5775 81.0077 44.4725 81.6293 43.7129L82.8724 44.6107ZM81.5602 40.8123C81.284 39.2239 79.9028 37.9118 77.6238 37.9118C75.4138 37.9118 74.1707 39.0167 73.7564 40.8123H81.5602Z" fill="#8AC2EB" stroke="#8AC2EB" stroke-width="0.3774" stroke-miterlimit="10"/>
<path d="M106.215 43.023C104.765 45.7855 102.279 46.8904 99.0329 46.8904C93.8534 46.8904 91.3672 43.7827 91.3672 39.9153C91.3672 35.2882 94.4749 32.8711 98.9639 32.8711C101.864 32.8711 104.765 33.9761 105.939 36.7385L104.558 37.36C103.591 35.1501 101.519 34.2523 98.9639 34.2523C95.1655 34.2523 93.0246 36.3241 93.0246 40.1225C93.0246 43.2302 95.0965 45.5092 99.1711 45.5092C101.795 45.5092 103.66 44.4042 104.765 42.3324L106.215 43.023Z" fill="#8AC2EB" stroke="#8AC2EB" stroke-width="0.3774" stroke-miterlimit="10"/>
<path d="M109.806 33.2168V34.9433H108.079V33.2168H109.806ZM108.217 36.9461H109.737V46.6146H108.217V36.9461Z" fill="#8AC2EB" stroke="#8AC2EB" stroke-width="0.3774" stroke-miterlimit="10"/>
<path d="M118.577 38.2578H114.779V44.1279C114.779 45.1639 115.262 45.7163 116.782 45.7163C117.472 45.7163 118.094 45.5782 118.923 45.4401V46.7523C117.887 46.8904 117.127 47.0285 116.505 47.0285C113.329 47.0285 113.329 45.0948 113.329 44.3351V38.3268H111.257V37.0147H113.329V33.8379H114.848V37.0147H118.646V38.2578H118.577Z" fill="#8AC2EB" stroke="#8AC2EB" stroke-width="0.3774" stroke-miterlimit="10"/>
<path d="M120.096 48.3423C120.579 48.5495 121.339 48.6185 121.822 48.6185C122.927 48.6185 123.687 48.0661 124.585 46.2014L119.612 36.9473H121.201L125.344 44.7511L129.281 36.9473H130.869L125.275 47.8589C124.654 49.0329 123.618 49.9998 121.891 49.9998C121.27 49.9998 120.648 49.8616 120.027 49.7235L120.096 48.3423Z" fill="#8AC2EB" stroke="#8AC2EB" stroke-width="0.3774" stroke-miterlimit="10"/>
<path d="M153.66 41.0897C153.66 45.924 149.861 46.9599 146.754 46.9599C143.646 46.9599 139.848 45.993 139.848 41.0897V33.2168H141.436V41.0897C141.436 44.1975 143.439 45.5787 146.685 45.5787C149.931 45.5787 151.933 44.1975 151.933 41.0897V33.2168H153.522L153.66 41.0897Z" fill="#8AC2EB" stroke="#8AC2EB" stroke-width="0.3774" stroke-miterlimit="10"/>
<path d="M156.837 36.9449H158.356V38.3261C159.392 37.4283 160.704 36.5996 162.431 36.5996C163.605 36.5996 166.436 36.8759 166.436 40.1908V46.5444H164.917V40.467C164.986 38.188 163.329 37.8427 162.224 37.8427C160.566 37.8427 159.254 38.8786 158.356 39.7764V46.5444H156.837V36.9449Z" fill="#8AC2EB" stroke="#8AC2EB" stroke-width="0.3774" stroke-miterlimit="10"/>
<path d="M170.58 33.2168V34.9433H168.854V33.2168H170.58ZM168.992 36.9461H170.511V46.6146H168.992V36.9461Z" fill="#8AC2EB" stroke="#8AC2EB" stroke-width="0.3774" stroke-miterlimit="10"/>
<path d="M172.237 36.9473H173.826L177.9 44.9583L181.975 36.9473H183.563L178.66 46.6158H177.141L172.237 36.9473Z" fill="#8AC2EB" stroke="#8AC2EB" stroke-width="0.3774" stroke-miterlimit="10"/>
<path d="M195.303 44.6107C194.336 45.6466 193.369 46.8897 190.054 46.8897C186.809 46.8897 184.599 44.6797 184.599 41.7101C184.599 38.6714 186.878 36.5996 189.847 36.5996C192.955 36.5996 195.579 38.188 195.51 42.0554H186.049C186.187 43.851 187.637 45.5775 190.123 45.5775C192.61 45.5775 193.438 44.4725 194.06 43.7129L195.303 44.6107ZM193.991 40.8123C193.715 39.2239 192.333 37.9118 190.054 37.9118C187.845 37.9118 186.601 39.0167 186.187 40.8123H193.991Z" fill="#8AC2EB" stroke="#8AC2EB" stroke-width="0.3774" stroke-miterlimit="10"/>
<path d="M197.721 36.9481H199.24V38.9509C200.069 37.984 201.312 36.6719 203.246 36.6719C203.591 36.6719 203.867 36.6719 204.143 36.7409V38.2603C203.936 38.2603 203.591 38.1222 202.969 38.1222C200.828 38.1222 199.309 40.5393 199.24 40.8846V46.6857H197.721V36.9481Z" fill="#8AC2EB" stroke="#8AC2EB" stroke-width="0.3774" stroke-miterlimit="10"/>
<path d="M206.078 43.5747C207.044 44.7488 208.426 45.5775 210.428 45.5775C212.017 45.5775 213.467 45.0941 213.467 43.92C213.467 41.1576 205.456 43.5057 205.456 39.5002C205.456 37.2902 207.666 36.5996 209.738 36.5996C212.984 36.5996 214.158 37.9808 214.641 38.6714L213.605 39.5692C212.846 38.5333 211.603 37.8427 209.669 37.8427C207.873 37.8427 206.906 38.3952 206.906 39.4311C206.906 41.9173 214.917 39.7073 214.917 43.7819C214.917 45.9919 212.777 46.8206 210.29 46.8206C208.149 46.8206 206.423 46.1991 204.973 44.5416L206.078 43.5747Z" fill="#8AC2EB" stroke="#8AC2EB" stroke-width="0.3774" stroke-miterlimit="10"/>
<path d="M218.646 33.2168V34.9433H216.92V33.2168H218.646ZM217.058 36.9461H218.577V46.6146H217.058V36.9461Z" fill="#8AC2EB" stroke="#8AC2EB" stroke-width="0.3774" stroke-miterlimit="10"/>
<path d="M227.416 38.2578H223.618V44.1279C223.618 45.1639 224.102 45.7163 225.621 45.7163C226.311 45.7163 226.933 45.5782 227.762 45.4401V46.7523C226.726 46.8904 225.966 47.0285 225.345 47.0285C222.237 47.0285 222.237 45.0948 222.237 44.3351V38.3268H220.165V37.0147H222.237V33.8379H223.687V37.0147H227.485V38.2578H227.416Z" fill="#8AC2EB" stroke="#8AC2EB" stroke-width="0.3774" stroke-miterlimit="10"/>
<path d="M228.937 48.3423C229.42 48.5495 230.18 48.6185 230.663 48.6185C231.837 48.6185 232.528 48.0661 233.426 46.2014L228.453 36.9473H230.111L234.254 44.7511L238.191 36.9473H239.779L234.116 47.8589C233.495 49.0329 232.459 49.9998 230.732 49.9998C230.111 49.9998 229.489 49.8616 228.867 49.7235V48.3423H228.937Z" fill="#8AC2EB" stroke="#8AC2EB" stroke-width="0.3774" stroke-miterlimit="10"/>
<path d="M247.514 41.572C247.514 38.8096 249.655 36.5996 253.039 36.5996C256.423 36.5996 258.563 38.8096 258.563 41.572C258.563 44.956 256.284 46.8897 253.039 46.8897C249.793 46.8897 247.514 45.025 247.514 41.572ZM257.113 41.7792C257.113 40.0526 256.008 37.9118 253.039 37.9118C250.069 37.9118 248.964 39.9836 248.964 41.7792C248.964 44.0582 250.483 45.6466 253.039 45.6466C255.594 45.6466 257.113 44.1272 257.113 41.7792Z" fill="#8AC2EB" stroke="#8AC2EB" stroke-width="0.3774" stroke-miterlimit="10"/>
<path d="M262.016 38.4657H259.599V37.1536H262.016V36.3939C262.016 34.8055 262.499 32.8027 265.469 32.8027C266.988 32.8027 267.61 32.9409 267.955 33.079V34.3911C267.264 34.253 266.643 34.0458 265.883 34.0458C263.811 34.0458 263.535 35.0127 263.535 36.463V37.0845H267.472V38.3967H263.535V46.5458H262.085L262.016 38.4657Z" fill="#8AC2EB" stroke="#8AC2EB" stroke-width="0.3774" stroke-miterlimit="10"/>
<path d="M276.726 33.2168H279.005L288.949 44.2665V33.2168H290.538V46.6146H288.949L278.314 34.598V46.5455H276.795L276.726 33.2168Z" fill="#8AC2EB" stroke="#8AC2EB" stroke-width="0.3774" stroke-miterlimit="10"/>
<path d="M303.59 44.6107C302.623 45.6466 301.656 46.8897 298.342 46.8897C295.096 46.8897 292.886 44.6797 292.886 41.7101C292.886 38.6714 295.165 36.5996 298.134 36.5996C301.173 36.5996 303.866 38.188 303.797 42.0554H294.336C294.474 43.851 295.924 45.5775 298.411 45.5775C300.897 45.5775 301.726 44.4725 302.347 43.7129L303.59 44.6107ZM302.278 40.8123C302.002 39.2239 300.621 37.9118 298.342 37.9118C296.132 37.9118 294.888 39.0167 294.474 40.8123H302.278Z" fill="#8AC2EB" stroke="#8AC2EB" stroke-width="0.3774" stroke-miterlimit="10"/>
<path d="M304.902 36.9473H306.422L309.598 44.8202L312.568 36.9473H313.949L316.919 44.8202L320.096 36.9473H321.684L317.61 46.6158H316.228L313.328 38.8119L310.358 46.6158H308.977L304.902 36.9473Z" fill="#8AC2EB" stroke="#8AC2EB" stroke-width="0.3774" stroke-miterlimit="10"/>
<path d="M335.013 41.1575L328.107 33.1465H330.248L335.842 39.7073L341.436 33.1465H343.577L336.671 41.1575V46.6133H335.083L335.013 41.1575Z" fill="#8AC2EB" stroke="#8AC2EB" stroke-width="0.3774" stroke-miterlimit="10"/>
<path d="M341.781 41.572C341.781 38.8096 343.922 36.5996 347.306 36.5996C350.69 36.5996 352.831 38.8096 352.831 41.572C352.831 44.956 350.552 46.8897 347.306 46.8897C344.06 46.8897 341.781 45.025 341.781 41.572ZM351.381 41.7792C351.381 40.0526 350.207 37.9118 347.306 37.9118C344.406 37.9118 343.232 39.9836 343.232 41.7792C343.232 44.0582 344.751 45.6466 347.306 45.6466C349.861 45.6466 351.381 44.1272 351.381 41.7792Z" fill="#8AC2EB" stroke="#8AC2EB" stroke-width="0.3774" stroke-miterlimit="10"/>
<path d="M354.833 36.9481H356.352V38.9509C357.181 37.984 358.424 36.6719 360.358 36.6719C360.703 36.6719 360.979 36.6719 361.256 36.7409V38.2603C361.048 38.2603 360.703 38.1222 360.082 38.1222C357.941 38.1222 356.421 40.5393 356.352 40.8846V46.6857H354.833V36.9481Z" fill="#8AC2EB" stroke="#8AC2EB" stroke-width="0.3774" stroke-miterlimit="10"/>
<path d="M362.983 33.2168H364.503V41.7803L370.649 37.0151H372.928L368.439 40.5372L373.55 46.6836H371.685L367.334 41.366L364.572 43.5069V46.6836H363.052V33.2168H362.983Z" fill="#8AC2EB" stroke="#8AC2EB" stroke-width="0.3774" stroke-miterlimit="10"/>
<path d="M0.137695 18.1632C0.137695 22.4449 1.65703 26.3123 4.14322 29.4201V6.90625C1.58797 9.94492 0.137695 13.8814 0.137695 18.1632Z" fill="#8AC2EB"/>
<path d="M35.7734 20.0958C35.8425 19.4743 35.9115 18.7837 35.9115 18.0931C35.8425 8.56268 28.3148 0.758816 18.8535 0.275391V3.93561C21.9613 9.73672 27.0717 15.8831 35.7734 20.0958Z" fill="#8AC2EB"/>
<path d="M29.6263 30.802C29.9716 30.802 30.2478 30.802 30.5931 30.802C30.8003 30.5948 30.9384 30.4567 31.1456 30.2495C26.8639 28.1086 22.7893 25.3462 18.9219 22.0312V33.081C22.1677 31.6307 25.7589 30.802 29.6263 30.802Z" fill="#8AC2EB"/>
<path d="M18.8535 8.76953V18.7833C23.1353 22.7198 27.7624 25.8966 32.5966 28.3137C33.7706 26.5872 34.6684 24.6535 35.2209 22.6507C33.4944 21.822 31.8369 20.9242 30.3176 19.9574C25.7596 16.9878 21.8922 13.2585 18.8535 8.76953Z" fill="#8AC2EB"/>
<path d="M6.90625 44.2683C9.25432 40.3319 12.5002 37.0169 16.3676 34.6689V19.4755C15.8842 18.9921 15.4007 18.5777 14.9173 18.0943C11.6024 14.7103 8.90901 11.3263 6.90625 8.42578V44.2683Z" fill="#8AC2EB"/>
<path d="M11.3256 2.48633C9.59904 2.48633 8.07971 3.45318 7.25098 4.83439C9.25374 7.94213 12.1543 11.9477 16.0908 15.9532V7.25152C16.0217 4.62721 13.8808 2.48633 11.3256 2.48633Z" fill="#8AC2EB"/>
</g>
<defs>
<clipPath id="clip0_410_22084">
<rect width="374.102" height="50" fill="white"/>
</clipPath>
</defs>
</svg>
