<?xml version="1.0" encoding="utf-8"?>
<!-- Generator: Adobe Illustrator 28.0.0, SVG Export Plug-In . SVG Version: 6.00 Build 0)  -->
<svg version="1.1" id="Layer_1" xmlns="http://www.w3.org/2000/svg" x="0px"
     y="0px"
     viewBox="0 0 387 104" style="enable-background:new 0 0 387 104;" xml:space="preserve"
     height="42"
     width="150">
<style type="text/css">
	.st0{fill:#FFFFFF;}
	.st1{fill:#E13D31;}
</style>
    <g>
	<polygon class="st0" points="100.19,52.42 115.02,52.42 115.02,45.24 100.19,48.44 	"/>
        <path class="st0" d="M115.02,34.46l14.25-23.71h-17.02l-2.98,6.96c-0.56,1.27-0.94,2.6-1.39,3.93h-0.44l-4.64-10.89H85.66
		l14.53,23.71v8.4c4.31-0.77,9.31-1.66,14.82-2.65V34.46z"/>
        <path class="st0" d="M146.6,39.92c-1.29,0-2.45-0.28-3.48-0.75l-16.66,3.6c3.94,6.59,11.48,10.32,20.14,10.32
		c12.14,0,22.09-7.32,22.97-19.63l-16.87,3.64C151.31,38.86,149.19,39.92,146.6,39.92z"/>
        <path class="st0" d="M138.81,31.92c0-4.42,2.98-8.13,7.79-8.13c4.81,0,7.8,3.7,7.8,8.13c0,0.41-0.05,0.81-0.1,1.2
		c5.04-0.91,10.16-1.84,15.29-2.76c-0.69-12.33-10.77-20.27-22.99-20.27c-12.65,0-23.04,8.51-23.04,21.61c0,2.45,0.35,4.71,1,6.79
		c4.81-0.87,9.88-1.78,15.12-2.73C139.14,34.64,138.81,33.36,138.81,31.92z"/>
        <path class="st0" d="M186.57,22.13h1.16c2.6,0,4.87,0.39,4.87,3.6c0,0.17-0.04,0.31-0.05,0.46c5.05-0.91,10-1.81,14.78-2.68
		c-0.83-9.22-8.41-12.77-17.28-12.77h-18.3v19.21c4.97-0.9,9.92-1.8,14.82-2.68V22.13z"/>
        <path class="st0" d="M201.87,38.88c-0.83-1.22-1.77-1.88-2.54-2.48v-0.33c5.61-1.87,8.05-4.52,8.07-10.77l-35.66,7.7v19.43h14.82
		V39.05h0.28l6.63,13.37h17.18v-0.43L201.87,38.88z"/>
        <path class="st0" d="M225.42,10.74h-14.76v12.16c5.11-0.93,10.01-1.82,14.59-2.65L225.42,10.74z"/>
        <path class="st0" d="M251.35,10.74h-16.54l-4.71,8.63c6.93-1.26,12.99-2.35,17.76-3.22L251.35,10.74z"/>
        <path class="st0" d="M247.57,16.62l-18.09,3.91l-1.96,3.59c-0.83,1.5-1.76,2.99-2.1,4.7h-0.33l0.13-7.38l-14.57,3.14v27.4
		l0.29,0.43h-0.29v0h14.76l-0.33-17.47h0.33c0.34,1.71,1.66,3.25,2.54,4.86l7.19,12.6h17.58l-14.43-21.4L247.57,16.62z"/>
        <polygon class="st0" points="210.65,51.99 210.65,52.42 210.94,52.42 	"/>
</g>
    <g>
	<path class="st0" d="M112.58,91.32c-9.24,0-16.19-6.01-16.19-15.26c0-8.98,6.59-15.08,16.27-15.08c4.34,0,8.32,1.11,11.77,3.28
		l-1.55,5.35l-0.4-0.09c-1.42-5.13-4.38-7.56-9.29-7.56c-7.29,0-12.12,5.22-12.12,14.51c0,8.44,5.08,13.89,12.08,13.89
		c5.21,0,8.93-3.1,9.99-8.58l0.4-0.04l1.73,5.62C121.52,90.08,117.5,91.32,112.58,91.32z"/>
        <path class="st0" d="M140.27,66.87c7.47,0,12.56,4.91,12.56,12.07c0,7.08-4.9,12.07-12.69,12.07c-7.39,0-12.52-4.95-12.52-12.3
		C127.62,71.82,132.76,66.87,140.27,66.87z M140.27,90.08c5.35,0,8.45-3.93,8.45-11.27c0-7.21-3.18-11.23-8.49-11.23
		c-5.18,0-8.49,3.93-8.49,11.19C131.74,86.06,134.97,90.08,140.27,90.08z"/>
        <path class="st0" d="M154.21,90.26c2.79-0.84,2.92-3.45,2.92-9.15c0-0.49,0-1.02,0-1.55V67.49c0-0.98,0-1.81,0-2.57
		c0-3.4-0.17-4.6-2.47-4.69v-0.35c1.99-0.22,3.98-0.79,6.06-1.63c-0.13,2.08-0.18,4.64-0.18,7.83v13.49c0,0.22,0,0.66,0,1.33
		c0,6.01,0.09,8.49,2.92,9.37v0.36c-1.51-0.09-3.1-0.17-4.73-0.17c-1.06,0-2.61,0.04-4.51,0.17V90.26z"/>
        <path class="st0" d="M166.37,90.26c2.79-0.84,2.92-3.45,2.92-9.15c0-0.49,0-1.02,0-1.55V67.49c0-0.98,0-1.81,0-2.57
		c0-3.4-0.17-4.6-2.47-4.69v-0.35c1.99-0.22,3.98-0.79,6.06-1.63c-0.13,2.08-0.18,4.64-0.18,7.83v13.49c0,0.22,0,0.66,0,1.33
		c0,6.01,0.09,8.49,2.92,9.37v0.36c-1.5-0.09-3.1-0.17-4.73-0.17c-1.06,0-2.6,0.04-4.51,0.17V90.26z"/>
        <path class="st0" d="M200.73,81.86c-1.77,6.1-5.66,9.24-11.54,9.24c-7.08,0-12.16-5.04-12.16-12.21c0-7.08,4.95-12.03,12.07-12.03
		c6.28,0,10.53,3.45,11.19,9.11h-19.06c-0.09,1.24-0.09,2.12-0.09,2.74c0,6.86,3.62,11.1,9.11,11.1c4.73,0,8.13-3.01,9.82-8.84
		L200.73,81.86z M195.96,75.05c-0.17-4.6-2.92-7.39-6.81-7.39c-3.99,0-6.81,2.61-7.78,7.39H195.96z"/>
        <path class="st0" d="M226.2,68.46h-0.27c-0.62-1.33-2.12-2.16-3.45-2.16c-1.07,0-1.95,0.44-2.88,1.37c4.07,1.59,6.06,3.94,6.06,7.3
		c0,4.47-3.45,7.47-10.18,8c-3.18,0.27-5.48,0.04-5.48,1.51c0,1.28,1.99,1.33,6.41,1.72c7.48,0.66,11.19,2.12,11.19,5.79
		c0,3.98-4.69,7.21-13.71,7.21c-6.72,0-11.63-2.43-11.63-5.93c0-2.83,2.65-4.51,8.05-5.35c-2.87-0.26-4.29-0.97-4.29-2.34
		c0-1.51,1.77-2.52,5.31-3.1c-4.86-0.93-7.47-3.76-7.47-7.48c0-4.51,4.55-8.18,10.83-8.18c1.24,0,2.56,0.22,4.07,0.53
		c2.26-2.48,4.83-3.71,7.08-3.71c0.44,0,1.11,0.04,1.86,0.13L226.2,68.46z M206.18,93.4c0,2.92,3.14,4.92,8.93,4.92
		c6.33,0,10-2.09,10-5.13c0-2.92-3.72-4.6-10.7-4.6C209.06,88.58,206.18,90.53,206.18,93.4z M207.54,75.05
		c0,4.42,2.79,7.21,7.56,7.21c4.2,0,6.86-2.74,6.86-7.7c0-4.2-2.66-6.94-7.13-6.94C210.67,67.62,207.54,70.45,207.54,75.05z"/>
        <path class="st0" d="M252.68,81.86c-1.77,6.1-5.66,9.24-11.55,9.24c-7.08,0-12.16-5.04-12.16-12.21c0-7.08,4.96-12.03,12.08-12.03
		c6.28,0,10.52,3.45,11.19,9.11h-19.06c-0.09,1.24-0.09,2.12-0.09,2.74c0,6.86,3.63,11.1,9.11,11.1c4.73,0,8.14-3.01,9.82-8.84
		L252.68,81.86z M247.9,75.05c-0.18-4.6-2.92-7.39-6.81-7.39c-3.98,0-6.81,2.61-7.78,7.39H247.9z"/>
</g>
    <rect x="274.59" y="10.94" class="st0" width="1.62" height="80.03"/>
    <g>
	<polygon class="st0" points="327.68,50.45 327.68,72.16 308.31,50.45 298.3,50.45 298.3,50.45 298.3,90.96 309.45,90.96
		309.45,69.25 328.54,90.96 338.82,90.96 338.82,50.45 	"/>
        <path class="st0" d="M379.33,33.43c0-1.47,0-2.95,0-4.42c0-1.35,0-2.69,0-3.99h0c0,0,0,0,0,0c0-7.74,0-14.18,0-14.18l-10.9,0
		l-0.24,0v14.18v8.41c0,0.99-0.15,1.89-0.47,2.71c-0.4,1.04-1.05,1.95-1.97,2.73c-1.71,1.47-4.2,2.34-6.66,2.35l0,0v0
		c0,0-0.01,0-0.01,0c0,0-0.01,0-0.01,0v0l0,0c-2.46-0.01-4.95-0.88-6.66-2.35c-0.92-0.79-1.57-1.69-1.97-2.73
		c-0.31-0.82-0.47-1.72-0.47-2.71v-8.41V10.84l-0.24,0l-10.9,0c0,0,0,6.44,0,14.18c0,0,0,0,0,0h0c0,1.3,0,2.64,0,3.99
		c0,1.47,0,2.95,0,4.42v2.71h0c0,8.96,9.67,16.08,19.74,16.22c0.1,0,0.21,0,0.31,0c0.04,0,0.08,0,0.12,0c0.03,0,0.05,0,0.08,0v0
		c0,0,0.01,0,0.01,0c0,0,0.01,0,0.01,0c0,0,0.01,0,0.01,0l0,0c0.02,0,0.04,0,0.07,0c0.04,0,0.08,0,0.12,0c0.1,0,0.21,0,0.31,0
		c10.06-0.14,19.74-7.06,19.74-16.22h0V33.43z"/>
        <path class="st0" d="M326.69,36.14c-1.8,3-5.01,5.01-8.68,5.06c-0.05,0-0.1,0-0.14,0c-5.72,0-10.35-4.76-10.35-10.62
		c0-5.87,4.63-10.62,10.35-10.62c0.05,0,0.1,0,0.14,0c3.67,0.05,6.88,2.06,8.68,5.06h12.14c0-9.14-9.63-16.04-19.66-16.22
		c-0.02,0-0.05,0-0.07,0c-0.1,0-0.21,0-0.31,0c-0.04,0-0.08,0-0.12,0c-0.02,0-0.04,0-0.07,0l0,0c0,0-0.01,0-0.01,0
		c0,0-0.01,0-0.01,0c0,0-0.01,0-0.01,0v0c-0.03,0-0.05,0-0.08,0c-0.04,0-0.08,0-0.12,0c-0.1,0-0.21,0-0.31,0h-0.82
		c-7.97,0-14.94,4.29-18.74,10.68c-1.93,3.25-3.04,7.04-3.04,11.1h0c0,0,0,0,0,0s0,0,0,0h0c0,4.05,1.11,7.85,3.04,11.1
		c3.79,6.39,10.77,10.68,18.74,10.68h0.82c0.1,0,0.21,0,0.31,0c0.04,0,0.08,0,0.12,0c0.03,0,0.05,0,0.08,0v0c0,0,0.01,0,0.01,0
		c0,0,0.01,0,0.01,0c0,0,0.01,0,0.01,0l0,0c0.02,0,0.04,0,0.07,0c0.04,0,0.08,0,0.12,0c0.1,0,0.21,0,0.31,0c0.02,0,0.05,0,0.07,0
		c10.04-0.18,19.66-7.08,19.66-16.22H326.69z"/>
        <polygon class="st0" points="368.2,50.45 359.08,69.04 349.96,50.45 338.82,50.45 353.51,80.4 353.51,90.96 364.65,90.96
		364.65,80.4 379.34,50.45 	"/>
</g>
    <g>
	<g>
		<path class="st0" d="M44.03,92.24c0,0,34.36-11.91,34.4-66.97c0-2.04-0.03-4.06,0.03-6.3c0,0-14.44-10.08-34.43-10.08
			C24.04,8.9,9.6,18.98,9.6,18.98c0.05,2.24,0.03,4.26,0.03,6.3C9.67,80.33,44.03,92.24,44.03,92.24z"/>
	</g>
        <g>
		<path class="st1" d="M11.57,26.7c0.01,15.02,2.73,26.62,6.59,35.55l55.17-9.94c1.93-7.18,3.14-15.64,3.14-25.61
			c0-1.92-0.03-3.83,0.03-5.94c0,0-13.62-9.51-32.48-9.51s-32.48,9.51-32.48,9.51C11.6,22.88,11.57,24.78,11.57,26.7z"/>
            <path d="M20.26,66.65c9.61,18.32,23.76,23.23,23.76,23.23s20.79-7.21,29.09-36.77L20.26,66.65z"/>
	</g>
        <g>
		<path class="st0"
              d="M28.78,32.89c-0.26,0.2-2.61,2.12-2.64,2.9c0,0.05,4.56-1.28,4.56-1.28S29.04,32.69,28.78,32.89z"/>
            <path class="st0"
                  d="M30.4,37.35c0.58-0.17,0.37-1.7,0.37-1.7l-4.67,0.39C26.11,36.05,29.82,37.52,30.4,37.35z"/>
            <path class="st0" d="M33.19,33.21c0.02-0.55-0.4-1.01-0.95-1.04c-0.55-0.02-1.01,0.4-1.04,0.94c-0.02,0.55,0.4,1.01,0.95,1.04
			C32.7,34.17,33.17,33.75,33.19,33.21z"/>
            <path class="st0" d="M73.34,52.31l-19.17,3.45c-0.99-1.34-1.66-2.29-1.66-2.43c0-0.51-1.35-2.82-1.35-2.82s-0.69-1.13,0.06-0.26
			c0.76,0.88,1.92,1.64,1.92,1.64l0.6,0.26c0.3-2.82-5.58-9.91-6.56-11.03c-1.08-1.23-4.47-3.45-4.93-4.01
			c-0.17-0.21-1.01-1.1-1.9-2.05c0-0.01-0.01-0.02-0.02-0.04c-0.84-1.02-2.45-3.29-2.44-3.29c1.08-0.27,1.84-3.84,1.5-3.57
			c-0.91,0.71-1.58,0.89-1.58,0.89s-1.43,0.6-0.18-0.26c1.54-1.07,1.32-3.84,1.32-3.84s-7.08,3.84-7.6,4.2
			c-0.53,0.36-2.39,1.77-2.24,3.13l0.11,0.19c0.04-0.04,0.08-0.08,0.13-0.12c1.77-1.47,3.95-1.77,4.87-0.66
			c0.89,1.07,0.29,3.04-1.33,4.5c0.32,0.56,0.56,1.31,0.64,2.15c0.17,1.85-0.49,3.43-1.47,3.52c-0.74,0.07-1.46-0.71-1.84-1.89
			l-0.01,0.03c-0.29,5.94,4.05,9.52,7.39,11.89c0.26,0.18,0.52,0.34,0.79,0.48l-6.71,7.44l-13.51,2.43c0.67,1.55,1.37,3.01,2.1,4.4
			l31.43-8.05c1.98,4.23,4.85,10.43,5.06,10.63c0.01,0,0.02,0.01,0.03,0.01c0.5,0.76,1.33,1.27,2.3,1.32
			c1.62,0.07,2.98-1.18,3.06-2.79c0.02-0.42-0.06-0.83-0.21-1.2c-0.03-0.08-0.07-0.16-0.13-0.27c-0.06-0.11-0.12-0.21-0.18-0.31
			c-0.99-1.6-3.83-5.37-6.08-8.38l17.57-4.5C73.19,52.85,73.26,52.58,73.34,52.31z M40.38,53.12c0.65,0.15,1.29,0.23,1.89,0.26
			l-4.88,5.41l-3.92,0.71L40.38,53.12z M39.42,58.42l5.65-5.21c0.33-0.05,0.55-0.09,0.59-0.08c0.25,0.04,4.03,1.48,4.18,1.59
			c0.03,0.02,0.34,0.67,0.82,1.68L39.42,58.42z"/>
	</g>
</g>
</svg>
