<svg width="32" height="32" viewBox="0 0 32 32" fill="none" xmlns="http://www.w3.org/2000/svg">
<g id="Group 39285">
<circle id="Ellipse 31" cx="16" cy="16" r="16" fill="#004439"/>
<g id="ic:round-plus">
<path id="Vector" d="M21.817 16.9666H16.9685V21.815C16.9685 22.0722 16.8663 22.3189 16.6845 22.5007C16.5026 22.6826 16.256 22.7847 15.9988 22.7847C15.7416 22.7847 15.495 22.6826 15.3131 22.5007C15.1313 22.3189 15.0291 22.0722 15.0291 21.815V16.9666H10.1806C9.92345 16.9666 9.67681 16.8644 9.49496 16.6825C9.3131 16.5007 9.21094 16.254 9.21094 15.9969C9.21094 15.7397 9.3131 15.493 9.49496 15.3112C9.67681 15.1293 9.92345 15.0272 10.1806 15.0272H15.0291V10.1787C15.0291 9.9215 15.1313 9.67486 15.3131 9.493C15.495 9.31115 15.7416 9.20898 15.9988 9.20898C16.256 9.20898 16.5026 9.31115 16.6845 9.493C16.8663 9.67486 16.9685 9.9215 16.9685 10.1787V15.0272H21.817C22.0742 15.0272 22.3208 15.1293 22.5027 15.3112C22.6845 15.493 22.7867 15.7397 22.7867 15.9969C22.7867 16.254 22.6845 16.5007 22.5027 16.6825C22.3208 16.8644 22.0742 16.9666 21.817 16.9666Z" fill="#E9E920"/>
</g>
</g>
</svg>
