<svg width="235" height="445" viewBox="0 0 235 445" fill="none" xmlns="http://www.w3.org/2000/svg">
<mask id="mask0_289_16246" style="mask-type:alpha" maskUnits="userSpaceOnUse" x="-148" y="62" width="321" height="321">
<path fill-rule="evenodd" clip-rule="evenodd" d="M83.7601 365.544C162.827 326.122 194.965 230.068 155.543 151.001C116.121 71.9347 20.0669 39.7963 -58.9999 79.2184C-138.067 118.64 -170.205 214.695 -130.783 293.761C-91.3608 372.828 4.69338 404.966 83.7601 365.544ZM-32.7893 288.345C3.67874 313.275 53.4515 303.921 78.3813 267.453C103.311 230.985 93.9575 181.212 57.4895 156.283C21.0214 131.353 -28.7514 140.707 -53.6811 177.175C-78.6109 213.643 -69.2573 263.415 -32.7893 288.345Z" fill="url(#paint0_linear_289_16246)" fill-opacity="0.3"/>
</mask>
<g mask="url(#mask0_289_16246)">
<rect x="116.193" y="80.457" width="165.479" height="366" transform="rotate(34.3568 116.193 80.457)" fill="url(#paint1_linear_289_16246)"/>
</g>
<defs>
<linearGradient id="paint0_linear_289_16246" x1="102.675" y1="90.2951" x2="-130.681" y2="431.656" gradientUnits="userSpaceOnUse">
<stop stop-color="#E9E920"/>
<stop offset="0.924756" stop-color="white"/>
</linearGradient>
<linearGradient id="paint1_linear_289_16246" x1="198.933" y1="80.457" x2="198.933" y2="446.457" gradientUnits="userSpaceOnUse">
<stop stop-color="#E9E920"/>
<stop offset="1" stop-color="#E9E920" stop-opacity="0.19"/>
</linearGradient>
</defs>
</svg>
