<svg width="250" height="150" viewBox="0 0 250 150" fill="none" xmlns="http://www.w3.org/2000/svg">
<line x1="45.5" y1="63" x2="45.5" y2="90" stroke="white"/>
<line x1="49" y1="59.5" x2="76" y2="59.5" stroke="white"/>
<line x1="75.5" y1="60" x2="75.5" y2="85" stroke="white"/>
<line x1="45" y1="89.5" x2="124.5" y2="89.5" stroke="white"/>
<line x1="124.5" y1="89.5" x2="204" y2="89.5" stroke="white"/>
<path d="M91.13 69.836C92.1567 69.836 92.964 70.046 93.552 70.466C94.1493 70.886 94.448 71.53 94.448 72.398C94.448 72.958 94.3173 73.4387 94.056 73.84C93.804 74.2413 93.4493 74.554 92.992 74.778C92.544 74.9927 92.012 75.114 91.396 75.142L91.172 74.344C91.8907 74.3627 92.53 74.4887 93.09 74.722C93.6593 74.946 94.1073 75.2633 94.434 75.674C94.77 76.0753 94.938 76.556 94.938 77.116C94.938 77.6293 94.84 78.0727 94.644 78.446C94.4573 78.81 94.2007 79.1087 93.874 79.342C93.5567 79.566 93.1927 79.734 92.782 79.846C92.3807 79.9487 91.9607 80 91.522 80H88.428V69.836H91.13ZM91.396 74.232C91.9187 74.232 92.3013 74.0827 92.544 73.784C92.7867 73.4853 92.908 73.1307 92.908 72.72C92.908 72.216 92.7493 71.852 92.432 71.628C92.124 71.3947 91.7133 71.278 91.2 71.278H89.926V74.232H91.396ZM91.452 78.614C91.816 78.614 92.1427 78.5627 92.432 78.46C92.7307 78.348 92.964 78.1847 93.132 77.97C93.3093 77.746 93.398 77.466 93.398 77.13C93.398 76.7567 93.2953 76.4673 93.09 76.262C92.894 76.0473 92.6373 75.898 92.32 75.814C92.012 75.7207 91.69 75.674 91.354 75.674H89.926V78.614H91.452ZM97.1643 69.836H98.6623V78.558H103.744V80H97.1643V69.836ZM105.093 74.932C105.093 74.232 105.224 73.5693 105.485 72.944C105.756 72.3187 106.129 71.7633 106.605 71.278C107.081 70.7927 107.632 70.4147 108.257 70.144C108.882 69.864 109.554 69.724 110.273 69.724C110.982 69.724 111.65 69.864 112.275 70.144C112.9 70.4147 113.456 70.7927 113.941 71.278C114.426 71.7633 114.804 72.3187 115.075 72.944C115.346 73.5693 115.481 74.232 115.481 74.932C115.481 75.6507 115.346 76.3227 115.075 76.948C114.804 77.5733 114.426 78.124 113.941 78.6C113.465 79.076 112.91 79.4493 112.275 79.72C111.65 79.9813 110.982 80.112 110.273 80.112C109.554 80.112 108.882 79.9813 108.257 79.72C107.632 79.4587 107.081 79.0947 106.605 78.628C106.129 78.152 105.756 77.6013 105.485 76.976C105.224 76.3413 105.093 75.66 105.093 74.932ZM106.633 74.932C106.633 75.4547 106.726 75.9447 106.913 76.402C107.109 76.85 107.375 77.2467 107.711 77.592C108.047 77.928 108.434 78.194 108.873 78.39C109.321 78.5767 109.802 78.67 110.315 78.67C110.819 78.67 111.29 78.5767 111.729 78.39C112.168 78.194 112.55 77.928 112.877 77.592C113.213 77.2467 113.474 76.85 113.661 76.402C113.848 75.9447 113.941 75.4547 113.941 74.932C113.941 74.4093 113.843 73.924 113.647 73.476C113.46 73.0187 113.199 72.6173 112.863 72.272C112.536 71.9267 112.149 71.656 111.701 71.46C111.262 71.264 110.791 71.166 110.287 71.166C109.764 71.166 109.284 71.264 108.845 71.46C108.406 71.656 108.019 71.9267 107.683 72.272C107.347 72.6173 107.086 73.0187 106.899 73.476C106.722 73.9333 106.633 74.4187 106.633 74.932ZM117.083 74.932C117.083 74.232 117.214 73.5693 117.475 72.944C117.746 72.3187 118.119 71.7633 118.595 71.278C119.071 70.7927 119.622 70.4147 120.247 70.144C120.872 69.864 121.544 69.724 122.263 69.724C122.972 69.724 123.64 69.864 124.265 70.144C124.89 70.4147 125.446 70.7927 125.931 71.278C126.416 71.7633 126.794 72.3187 127.065 72.944C127.336 73.5693 127.471 74.232 127.471 74.932C127.471 75.6507 127.336 76.3227 127.065 76.948C126.794 77.5733 126.416 78.124 125.931 78.6C125.455 79.076 124.9 79.4493 124.265 79.72C123.64 79.9813 122.972 80.112 122.263 80.112C121.544 80.112 120.872 79.9813 120.247 79.72C119.622 79.4587 119.071 79.0947 118.595 78.628C118.119 78.152 117.746 77.6013 117.475 76.976C117.214 76.3413 117.083 75.66 117.083 74.932ZM118.623 74.932C118.623 75.4547 118.716 75.9447 118.903 76.402C119.099 76.85 119.365 77.2467 119.701 77.592C120.037 77.928 120.424 78.194 120.863 78.39C121.311 78.5767 121.792 78.67 122.305 78.67C122.809 78.67 123.28 78.5767 123.719 78.39C124.158 78.194 124.54 77.928 124.867 77.592C125.203 77.2467 125.464 76.85 125.651 76.402C125.838 75.9447 125.931 75.4547 125.931 74.932C125.931 74.4093 125.833 73.924 125.637 73.476C125.45 73.0187 125.189 72.6173 124.853 72.272C124.526 71.9267 124.139 71.656 123.691 71.46C123.252 71.264 122.781 71.166 122.277 71.166C121.754 71.166 121.274 71.264 120.835 71.46C120.396 71.656 120.009 71.9267 119.673 72.272C119.337 72.6173 119.076 73.0187 118.889 73.476C118.712 73.9333 118.623 74.4187 118.623 74.932ZM129.703 80V69.5H129.717L135.121 77.158L134.477 77.018L139.853 69.5H139.881V80H138.397V72.874L138.495 73.644L134.743 78.95H134.715L130.893 73.644L131.145 72.944V80H129.703ZM142.733 69.836H144.231V80H142.733V69.836ZM155.942 80.35L148.116 72.58L148.55 72.72L148.592 80H147.08V69.514H147.15L154.878 77.298L154.528 77.2L154.5 69.836H155.984V80.35H155.942ZM166.874 79.104C166.734 79.2253 166.538 79.3467 166.286 79.468C166.034 79.5893 165.749 79.6967 165.432 79.79C165.124 79.8833 164.806 79.958 164.48 80.014C164.153 80.0793 163.845 80.112 163.556 80.112C162.734 80.112 161.997 79.986 161.344 79.734C160.69 79.482 160.13 79.132 159.664 78.684C159.197 78.236 158.838 77.7133 158.586 77.116C158.343 76.5093 158.222 75.8513 158.222 75.142C158.222 74.274 158.362 73.504 158.642 72.832C158.922 72.16 159.3 71.5953 159.776 71.138C160.261 70.6713 160.816 70.3213 161.442 70.088C162.076 69.8453 162.739 69.724 163.43 69.724C164.036 69.724 164.596 69.794 165.11 69.934C165.632 70.074 166.08 70.256 166.454 70.48L165.964 71.852C165.777 71.7493 165.544 71.6513 165.264 71.558C164.993 71.4553 164.713 71.376 164.424 71.32C164.134 71.264 163.868 71.236 163.626 71.236C163.028 71.236 162.492 71.3247 162.016 71.502C161.549 71.67 161.148 71.9173 160.812 72.244C160.476 72.5707 160.214 72.9673 160.028 73.434C159.85 73.9007 159.762 74.428 159.762 75.016C159.762 75.548 159.855 76.038 160.042 76.486C160.228 76.9247 160.49 77.3073 160.826 77.634C161.162 77.9513 161.563 78.1987 162.03 78.376C162.496 78.544 163.014 78.628 163.584 78.628C163.91 78.628 164.232 78.5953 164.55 78.53C164.867 78.4647 165.138 78.3713 165.362 78.25V76.402H163.402V74.96H166.874V79.104ZM173.024 69.836H174.928L181.536 80H179.618L173.024 69.836ZM172.884 80L176.426 74.442L177.154 75.912L174.732 80H172.884ZM177.21 73.896L179.604 69.836H181.41L178.008 75.17L177.21 73.896ZM186.22 69.836C186.976 69.836 187.62 69.9667 188.152 70.228C188.694 70.48 189.104 70.844 189.384 71.32C189.674 71.796 189.818 72.3747 189.818 73.056C189.818 73.4573 189.758 73.854 189.636 74.246C189.515 74.638 189.319 74.9973 189.048 75.324C188.787 75.6413 188.437 75.898 187.998 76.094C187.56 76.2807 187.028 76.374 186.402 76.374H184.918V80H183.42V69.836H186.22ZM186.402 74.932C186.776 74.932 187.088 74.8713 187.34 74.75C187.592 74.6193 187.788 74.456 187.928 74.26C188.078 74.064 188.18 73.8633 188.236 73.658C188.302 73.4433 188.334 73.252 188.334 73.084C188.334 72.8973 188.302 72.7013 188.236 72.496C188.18 72.2813 188.082 72.0853 187.942 71.908C187.802 71.7213 187.611 71.572 187.368 71.46C187.126 71.3387 186.822 71.278 186.458 71.278H184.918V74.932H186.402Z" fill="white"/>
<path d="M60.976 69.224C62.2027 69.224 63.1787 69.4747 63.904 69.976C64.6293 70.4667 64.992 71.2027 64.992 72.184C64.992 72.9093 64.8107 73.5173 64.448 74.008C64.096 74.488 63.6107 74.8507 62.992 75.096C62.384 75.3307 61.6853 75.448 60.896 75.448L60.528 74.2C61.4987 74.2 62.3573 74.3333 63.104 74.6C63.8613 74.8667 64.4587 75.2507 64.896 75.752C65.3333 76.2427 65.552 76.8347 65.552 77.528C65.552 78.168 65.4347 78.712 65.2 79.16C64.976 79.5973 64.6667 79.9547 64.272 80.232C63.888 80.4987 63.4507 80.696 62.96 80.824C62.4693 80.9413 61.9627 81 61.44 81H57.52V69.224H60.976ZM61.248 74.04C61.7067 74.04 62.0427 73.9013 62.256 73.624C62.48 73.3467 62.592 73.032 62.592 72.68C62.592 72.2747 62.4533 71.9707 62.176 71.768C61.9093 71.5653 61.5467 71.464 61.088 71.464H59.84V74.04H61.248ZM61.328 78.84C61.6693 78.84 61.9787 78.7973 62.256 78.712C62.5333 78.616 62.752 78.472 62.912 78.28C63.072 78.0773 63.152 77.8267 63.152 77.528C63.152 77.1867 63.056 76.9307 62.864 76.76C62.672 76.5787 62.4213 76.456 62.112 76.392C61.8133 76.3173 61.4987 76.28 61.168 76.28H59.84V78.84H61.328Z" fill="white"/>
</svg>
