<svg width="96" height="51" viewBox="0 0 96 51" fill="none" xmlns="http://www.w3.org/2000/svg">
<path d="M7.1618 20.18C6.18846 20.18 5.31513 20.0533 4.5418 19.8C3.76846 19.5467 3.10846 19.1733 2.5618 18.68C2.02846 18.1733 1.61513 17.58 1.3218 16.9C1.02846 16.2067 0.881797 15.44 0.881797 14.6C0.881797 13.4533 1.14846 12.4667 1.6818 11.64C2.22846 10.8133 2.9818 10.18 3.9418 9.74C4.91513 9.3 6.0418 9.08 7.3218 9.08C8.49513 9.08 9.5218 9.26 10.4018 9.62C11.2818 9.96667 11.9751 10.4533 12.4818 11.08C12.9885 11.6933 13.2685 12.4133 13.3218 13.24H9.9818C9.9018 12.8933 9.73513 12.6067 9.4818 12.38C9.2418 12.14 8.93513 11.96 8.5618 11.84C8.18846 11.72 7.76846 11.66 7.3018 11.66C6.6618 11.66 6.11513 11.7867 5.6618 12.04C5.20846 12.28 4.8618 12.6267 4.6218 13.08C4.3818 13.52 4.2618 14.0333 4.2618 14.62C4.2618 15.26 4.3818 15.8067 4.6218 16.26C4.87513 16.7133 5.22846 17.0533 5.6818 17.28C6.13513 17.5067 6.66846 17.62 7.2818 17.62C7.73513 17.62 8.14846 17.5533 8.5218 17.42C8.90846 17.2867 9.22846 17.1 9.4818 16.86C9.74846 16.62 9.92846 16.3267 10.0218 15.98H13.3818C13.3151 16.8467 12.9951 17.5933 12.4218 18.22C11.8485 18.8467 11.1018 19.3333 10.1818 19.68C9.27513 20.0133 8.26846 20.18 7.1618 20.18ZM20.877 20.2C19.9036 20.2 19.0236 20.08 18.237 19.84C17.4503 19.5867 16.7703 19.22 16.197 18.74C15.6236 18.26 15.1836 17.68 14.877 17C14.5703 16.3067 14.417 15.52 14.417 14.64C14.417 13.48 14.6836 12.4867 15.217 11.66C15.7636 10.8333 16.517 10.2 17.477 9.76C18.4503 9.30667 19.5836 9.08 20.877 9.08C21.837 9.08 22.7103 9.20667 23.497 9.46C24.297 9.71333 24.977 10.08 25.537 10.56C26.1103 11.0267 26.5503 11.6067 26.857 12.3C27.1636 12.9933 27.317 13.7733 27.317 14.64C27.317 15.7867 27.0503 16.78 26.517 17.62C25.9836 18.46 25.237 19.1 24.277 19.54C23.317 19.98 22.1836 20.2 20.877 20.2ZM20.877 17.62C21.5303 17.62 22.0836 17.5 22.537 17.26C23.0036 17.0067 23.357 16.66 23.597 16.22C23.837 15.7667 23.957 15.24 23.957 14.64C23.957 14.1867 23.8903 13.78 23.757 13.42C23.6236 13.0467 23.4236 12.7333 23.157 12.48C22.8903 12.2133 22.5636 12.0133 22.177 11.88C21.8036 11.7333 21.3703 11.66 20.877 11.66C20.2236 11.66 19.6636 11.78 19.197 12.02C18.7436 12.26 18.397 12.6067 18.157 13.06C17.917 13.5 17.797 14.0267 17.797 14.64C17.797 15.0933 17.8636 15.5067 17.997 15.88C18.1436 16.24 18.3436 16.5533 18.597 16.82C18.8636 17.0733 19.1836 17.2733 19.557 17.42C19.9436 17.5533 20.3836 17.62 20.877 17.62ZM28.8809 20V5.42H32.2409V20H28.8809ZM34.2324 20V5.42H37.5924V20H34.2324ZM45.564 20.18C44.2573 20.18 43.124 19.96 42.164 19.52C41.204 19.08 40.4573 18.4533 39.924 17.64C39.3907 16.8267 39.124 15.8467 39.124 14.7C39.124 13.5133 39.3907 12.5067 39.924 11.68C40.4707 10.84 41.2173 10.2 42.164 9.76C43.124 9.30667 44.244 9.08 45.524 9.08C46.884 9.08 48.0373 9.33333 48.984 9.84C49.944 10.3333 50.6573 11.0467 51.124 11.98C51.604 12.9133 51.7973 14.04 51.704 15.36H42.504C42.5173 15.88 42.6507 16.3333 42.904 16.72C43.1707 17.1067 43.5307 17.4067 43.984 17.62C44.4507 17.82 45.004 17.92 45.644 17.92C46.3773 17.92 46.9973 17.8 47.504 17.56C48.024 17.3067 48.3573 16.98 48.504 16.58H51.684C51.5907 17.2867 51.264 17.9133 50.704 18.46C50.1573 19.0067 49.4373 19.4333 48.544 19.74C47.664 20.0333 46.6707 20.18 45.564 20.18ZM42.424 13.7L42.304 13.52H48.544L48.384 13.68C48.3707 13.2133 48.2507 12.8067 48.024 12.46C47.7973 12.1133 47.4707 11.8467 47.044 11.66C46.6307 11.4733 46.1173 11.38 45.504 11.38C44.9173 11.38 44.404 11.4733 43.964 11.66C43.524 11.8333 43.1707 12.0933 42.904 12.44C42.6507 12.7867 42.4907 13.2067 42.424 13.7ZM58.7759 23.54C57.6159 23.54 56.6292 23.4 55.8159 23.12C55.0159 22.84 54.3892 22.44 53.9359 21.92C53.4959 21.4 53.2425 20.7933 53.1759 20.1H56.3759C56.4425 20.3667 56.5759 20.5867 56.7759 20.76C56.9892 20.9467 57.2692 21.0867 57.6159 21.18C57.9625 21.2733 58.3692 21.32 58.8359 21.32C59.4092 21.32 59.9092 21.2467 60.3359 21.1C60.7759 20.9667 61.1092 20.74 61.3359 20.42C61.5759 20.1 61.6959 19.68 61.6959 19.16V17.46H61.5559C61.2359 18.06 60.7225 18.52 60.0159 18.84C59.3225 19.16 58.5692 19.32 57.7559 19.32C57.0092 19.32 56.3292 19.2 55.7159 18.96C55.1025 18.7067 54.5759 18.3533 54.1359 17.9C53.7092 17.4467 53.3759 16.9133 53.1359 16.3C52.9092 15.6733 52.7959 14.9733 52.7959 14.2C52.7959 13.1733 53.0092 12.2733 53.4359 11.5C53.8625 10.7267 54.4492 10.1333 55.1959 9.72C55.9559 9.29333 56.8292 9.08 57.8159 9.08C58.6825 9.08 59.4492 9.24667 60.1159 9.58C60.7825 9.9 61.2759 10.34 61.5959 10.9H61.7359L61.8959 9.28H65.0559V18.74C65.0559 19.5133 64.9225 20.1933 64.6559 20.78C64.4025 21.38 64.0159 21.8867 63.4959 22.3C62.9759 22.7133 62.3225 23.02 61.5359 23.22C60.7625 23.4333 59.8425 23.54 58.7759 23.54ZM58.9359 16.86C59.5092 16.86 59.9959 16.76 60.3959 16.56C60.8092 16.3467 61.1292 16.06 61.3559 15.7C61.5825 15.3267 61.6959 14.9067 61.6959 14.44V13.98C61.6959 13.5 61.5825 13.0733 61.3559 12.7C61.1292 12.3267 60.8092 12.0333 60.3959 11.82C59.9959 11.6067 59.5225 11.5 58.9759 11.5C58.4159 11.5 57.9225 11.6133 57.4959 11.84C57.0825 12.0533 56.7625 12.36 56.5359 12.76C56.3092 13.16 56.1959 13.6333 56.1959 14.18C56.1959 14.74 56.3092 15.22 56.5359 15.62C56.7625 16.02 57.0825 16.3267 57.4959 16.54C57.9092 16.7533 58.3892 16.86 58.9359 16.86ZM72.9663 20.18C71.6597 20.18 70.5263 19.96 69.5663 19.52C68.6063 19.08 67.8597 18.4533 67.3263 17.64C66.793 16.8267 66.5263 15.8467 66.5263 14.7C66.5263 13.5133 66.793 12.5067 67.3263 11.68C67.873 10.84 68.6197 10.2 69.5663 9.76C70.5263 9.30667 71.6463 9.08 72.9263 9.08C74.2863 9.08 75.4397 9.33333 76.3863 9.84C77.3463 10.3333 78.0597 11.0467 78.5263 11.98C79.0063 12.9133 79.1997 14.04 79.1063 15.36H69.9063C69.9197 15.88 70.053 16.3333 70.3063 16.72C70.573 17.1067 70.933 17.4067 71.3863 17.62C71.853 17.82 72.4063 17.92 73.0463 17.92C73.7797 17.92 74.3997 17.8 74.9063 17.56C75.4263 17.3067 75.7597 16.98 75.9063 16.58H79.0863C78.993 17.2867 78.6663 17.9133 78.1063 18.46C77.5597 19.0067 76.8397 19.4333 75.9463 19.74C75.0663 20.0333 74.073 20.18 72.9663 20.18ZM69.8263 13.7L69.7063 13.52H75.9463L75.7863 13.68C75.773 13.2133 75.653 12.8067 75.4263 12.46C75.1997 12.1133 74.873 11.8467 74.4463 11.66C74.033 11.4733 73.5197 11.38 72.9063 11.38C72.3197 11.38 71.8063 11.4733 71.3663 11.66C70.9263 11.8333 70.573 12.0933 70.3063 12.44C70.053 12.7867 69.893 13.2067 69.8263 13.7Z" fill="#E9E920"/>
<path d="M52.3661 43V34.82H50.4861V32.28H52.3661V31.56C52.3661 30.48 52.7061 29.6867 53.3861 29.18C54.0794 28.6733 55.0794 28.42 56.3861 28.42H58.3461V30.62H56.9061C56.5194 30.62 56.2261 30.7067 56.0261 30.88C55.8394 31.0533 55.7461 31.3133 55.7461 31.66V32.28H58.1461V34.82H55.7461V43H52.3661ZM59.5664 43V28.42H62.9264V43H59.5664ZM70.918 43.2C69.9446 43.2 69.0646 43.08 68.278 42.84C67.4913 42.5867 66.8113 42.22 66.238 41.74C65.6646 41.26 65.2246 40.68 64.918 40C64.6113 39.3067 64.458 38.52 64.458 37.64C64.458 36.48 64.7246 35.4867 65.258 34.66C65.8046 33.8333 66.558 33.2 67.518 32.76C68.4913 32.3067 69.6246 32.08 70.918 32.08C71.878 32.08 72.7513 32.2067 73.538 32.46C74.338 32.7133 75.018 33.08 75.578 33.56C76.1513 34.0267 76.5913 34.6067 76.898 35.3C77.2046 35.9933 77.358 36.7733 77.358 37.64C77.358 38.7867 77.0913 39.78 76.558 40.62C76.0246 41.46 75.278 42.1 74.318 42.54C73.358 42.98 72.2246 43.2 70.918 43.2ZM70.918 40.62C71.5713 40.62 72.1246 40.5 72.578 40.26C73.0446 40.0067 73.398 39.66 73.638 39.22C73.878 38.7667 73.998 38.24 73.998 37.64C73.998 37.1867 73.9313 36.78 73.798 36.42C73.6646 36.0467 73.4646 35.7333 73.198 35.48C72.9313 35.2133 72.6046 35.0133 72.218 34.88C71.8446 34.7333 71.4113 34.66 70.918 34.66C70.2646 34.66 69.7046 34.78 69.238 35.02C68.7846 35.26 68.438 35.6067 68.198 36.06C67.958 36.5 67.838 37.0267 67.838 37.64C67.838 38.0933 67.9046 38.5067 68.038 38.88C68.1846 39.24 68.3846 39.5533 68.638 39.82C68.9046 40.0733 69.2246 40.2733 69.598 40.42C69.9846 40.5533 70.4246 40.62 70.918 40.62ZM80.7884 43L77.7084 32.28H80.9084L83.0284 40.14H83.1684L85.1284 32.28H88.4484L90.3684 40.2H90.4484L92.6284 32.28H95.6884L92.5884 43H88.5484L86.6884 36.02H86.5884L84.7684 43H80.7884Z" fill="#E9E920"/>
</svg>
