<svg width="32" height="32" viewBox="0 0 32 32" fill="none" xmlns="http://www.w3.org/2000/svg">
<path d="M15.56 22.144C14.7493 22.144 14.0507 21.9893 13.464 21.68C12.8773 21.3707 12.424 20.9387 12.104 20.384C11.784 19.8293 11.624 19.184 11.624 18.448H13.24C13.24 18.896 13.3307 19.2907 13.512 19.632C13.704 19.9733 13.976 20.24 14.328 20.432C14.68 20.624 15.0907 20.72 15.56 20.72C16.04 20.72 16.4507 20.6347 16.792 20.464C17.144 20.2933 17.416 20.0533 17.608 19.744C17.8 19.424 17.896 19.056 17.896 18.64C17.896 18.32 17.8427 18.0373 17.736 17.792C17.64 17.5467 17.496 17.344 17.304 17.184C17.1227 17.024 16.904 16.9067 16.648 16.832C16.392 16.7467 16.104 16.704 15.784 16.704H14.52V15.44H15.688C16.136 15.44 16.5093 15.36 16.808 15.2C17.1067 15.0293 17.3307 14.8053 17.48 14.528C17.64 14.24 17.72 13.9147 17.72 13.552C17.72 13.168 17.6293 12.8427 17.448 12.576C17.2773 12.2987 17.032 12.0907 16.712 11.952C16.4027 11.8133 16.0293 11.744 15.592 11.744C15.1227 11.744 14.7173 11.84 14.376 12.032C14.0453 12.2133 13.7893 12.4693 13.608 12.8C13.4373 13.1307 13.3467 13.52 13.336 13.968H11.72C11.72 13.232 11.88 12.592 12.2 12.048C12.5307 11.4933 12.9893 11.0667 13.576 10.768C14.1733 10.4693 14.8667 10.32 15.656 10.32C16.232 10.32 16.7493 10.3947 17.208 10.544C17.6667 10.6827 18.0613 10.8853 18.392 11.152C18.7227 11.4187 18.9733 11.7387 19.144 12.112C19.3253 12.4853 19.416 12.9013 19.416 13.36C19.416 13.7867 19.3413 14.176 19.192 14.528C19.0427 14.88 18.8347 15.1787 18.568 15.424C18.3013 15.6693 17.9867 15.8507 17.624 15.968V16.064C18.0507 16.16 18.408 16.336 18.696 16.592C18.984 16.848 19.2027 17.1627 19.352 17.536C19.512 17.8987 19.592 18.3147 19.592 18.784C19.592 19.456 19.4213 20.0427 19.08 20.544C18.7493 21.0453 18.28 21.44 17.672 21.728C17.0747 22.0053 16.3707 22.144 15.56 22.144Z" fill="#E9E920"/>
<circle cx="16" cy="16" r="15" stroke="#E9E9E9" stroke-width="2"/>
</svg>
