<svg width="32" height="32" viewBox="0 0 32 32" fill="none" xmlns="http://www.w3.org/2000/svg">
<path d="M11.688 22V21.712C11.688 21.072 11.7947 20.5067 12.008 20.016C12.2213 19.5147 12.504 19.072 12.856 18.688C13.208 18.2933 13.592 17.936 14.008 17.616C14.4347 17.296 14.856 16.992 15.272 16.704C15.688 16.416 16.072 16.128 16.424 15.84C16.776 15.5413 17.0587 15.2267 17.272 14.896C17.4853 14.5547 17.592 14.1707 17.592 13.744C17.592 13.3387 17.5013 12.9867 17.32 12.688C17.1493 12.3893 16.904 12.16 16.584 12C16.2747 11.8293 15.912 11.744 15.496 11.744C15.048 11.744 14.6587 11.84 14.328 12.032C13.9973 12.2133 13.7413 12.4747 13.56 12.816C13.3893 13.1467 13.3147 13.5573 13.336 14.048H11.72C11.6987 13.2907 11.848 12.6347 12.168 12.08C12.488 11.5253 12.9413 11.0933 13.528 10.784C14.1253 10.4747 14.8133 10.32 15.592 10.32C16.3387 10.32 16.9893 10.4587 17.544 10.736C18.0987 11.0027 18.5307 11.392 18.84 11.904C19.1493 12.4053 19.304 12.992 19.304 13.664C19.304 14.1653 19.2133 14.6187 19.032 15.024C18.8507 15.4293 18.6053 15.8027 18.296 16.144C17.9973 16.4747 17.6613 16.784 17.288 17.072C16.9253 17.3493 16.552 17.6213 16.168 17.888C15.7947 18.1547 15.4373 18.4267 15.096 18.704C14.7547 18.9707 14.4667 19.2587 14.232 19.568C13.9973 19.8667 13.8373 20.192 13.752 20.544H19.432V22H11.688Z" fill="#E9E920"/>
<circle cx="16" cy="16" r="15" stroke="#E9E9E9" stroke-width="2"/>
</svg>
