<svg width="24" height="24" viewBox="0 0 24 24" fill="none" xmlns="http://www.w3.org/2000/svg">
<path d="M14.69 6.70978C14.7827 6.80229 14.8562 6.91218 14.9064 7.03315C14.9566 7.15413 14.9824 7.28381 14.9824 7.41478C14.9824 7.54575 14.9566 7.67543 14.9064 7.7964C14.8562 7.91738 14.7827 8.02726 14.69 8.11978L10.81 11.9998L14.69 15.8798C14.877 16.0668 14.982 16.3204 14.982 16.5848C14.982 16.8492 14.877 17.1028 14.69 17.2898C14.503 17.4768 14.2494 17.5818 13.985 17.5818C13.7206 17.5818 13.467 17.4768 13.28 17.2898L8.68998 12.6998C8.59727 12.6073 8.52373 12.4974 8.47355 12.3764C8.42336 12.2554 8.39753 12.1257 8.39753 11.9948C8.39753 11.8638 8.42336 11.7341 8.47355 11.6132C8.52373 11.4922 8.59727 11.3823 8.68998 11.2898L13.28 6.69978C13.66 6.31978 14.3 6.31978 14.69 6.70978Z" fill="#0D1717" fill-opacity="0.7"/>
</svg>
