<svg width="16" height="16" viewBox="0 0 16 16" fill="none" xmlns="http://www.w3.org/2000/svg">
<path d="M7.9987 7.66732C7.55667 7.66732 7.13275 7.49172 6.82019 7.17916C6.50763 6.8666 6.33203 6.44268 6.33203 6.00065C6.33203 5.55862 6.50763 5.1347 6.82019 4.82214C7.13275 4.50958 7.55667 4.33398 7.9987 4.33398C8.44073 4.33398 8.86465 4.50958 9.17721 4.82214C9.48977 5.1347 9.66536 5.55862 9.66536 6.00065C9.66536 6.21952 9.62225 6.43625 9.5385 6.63846C9.45474 6.84067 9.33197 7.0244 9.17721 7.17916C9.02244 7.33393 8.83871 7.45669 8.6365 7.54045C8.43429 7.62421 8.21757 7.66732 7.9987 7.66732ZM7.9987 1.33398C6.76102 1.33398 5.57404 1.82565 4.69887 2.70082C3.8237 3.57599 3.33203 4.76297 3.33203 6.00065C3.33203 9.50065 7.9987 14.6673 7.9987 14.6673C7.9987 14.6673 12.6654 9.50065 12.6654 6.00065C12.6654 4.76297 12.1737 3.57599 11.2985 2.70082C10.4234 1.82565 9.23637 1.33398 7.9987 1.33398Z" fill="#00392F"/>
</svg>
