<svg width="16" height="16" viewBox="0 0 16 16" fill="none" xmlns="http://www.w3.org/2000/svg">
<path d="M11.8353 9.3326C12.2329 9.33296 12.6141 9.49115 12.8951 9.77242C13.1761 10.0537 13.334 10.435 13.334 10.8326V11.4446C13.334 11.8266 13.2146 12.1991 12.9926 12.5099C11.962 13.9526 10.2793 14.6666 7.9993 14.6666C5.71797 14.6666 4.03597 13.9519 3.00797 12.5093C2.78672 12.1986 2.66787 11.8267 2.66797 11.4453V10.8319C2.66815 10.4343 2.82617 10.0531 3.10731 9.77194C3.38845 9.4908 3.76971 9.33278 4.1673 9.3326H11.8353ZM7.99864 1.33594C8.43638 1.33594 8.86983 1.42216 9.27425 1.58967C9.67867 1.75719 10.0461 2.00272 10.3557 2.31225C10.6652 2.62178 10.9107 2.98924 11.0782 3.39366C11.2458 3.79808 11.332 4.23153 11.332 4.66927C11.332 5.10701 11.2458 5.54046 11.0782 5.94488C10.9107 6.3493 10.6652 6.71676 10.3557 7.02629C10.0461 7.33582 9.67867 7.58135 9.27425 7.74887C8.86983 7.91638 8.43638 8.0026 7.99864 8.0026C7.11458 8.0026 6.26673 7.65141 5.64161 7.02629C5.01649 6.40117 4.6653 5.55333 4.6653 4.66927C4.6653 3.78522 5.01649 2.93737 5.64161 2.31225C6.26673 1.68713 7.11458 1.33594 7.99864 1.33594Z" fill="#00392F"/>
</svg>
