<svg width="13" height="13" viewBox="0 0 13 13" fill="none" xmlns="http://www.w3.org/2000/svg">
<g opacity="0.5" clip-path="url(#clip0_650_7432)">
<path d="M9.77291 0.615389C9.63399 0.61299 9.496 0.638558 9.36715 0.690572C9.23831 0.742585 9.12124 0.819982 9.02291 0.918158L8.56137 1.394L11.6043 4.4517L12.0658 3.97631C12.1654 3.8769 12.2444 3.75884 12.2983 3.62888C12.3521 3.49892 12.3799 3.35962 12.3799 3.21893C12.3799 3.07824 12.3521 2.93893 12.2983 2.80897C12.2444 2.67901 12.1654 2.56095 12.0658 2.46154L10.5372 0.932466C10.3341 0.730349 10.0595 0.616427 9.77291 0.615389ZM8.04214 1.81262L7.32076 2.50493L10.4938 5.678L11.2295 5L8.04214 1.81262ZM6.85876 3.00985L1.86953 7.95616C1.81284 7.98517 1.76296 8.02589 1.72318 8.07562C1.6834 8.12534 1.65462 8.18295 1.63876 8.24462L0.570759 11.8654C0.546645 11.9436 0.544315 12.0269 0.564019 12.1063C0.583723 12.1858 0.624715 12.2583 0.682583 12.3162C0.740452 12.374 0.813006 12.415 0.892437 12.4347C0.971868 12.4544 1.05517 12.4521 1.13337 12.428L4.75368 11.3605C4.83586 11.3482 4.91304 11.3134 4.97666 11.26C5.04028 11.2065 5.08787 11.1365 5.11414 11.0577L10.0323 6.18247L9.35476 5.50493L4.30645 10.5675L2.27291 11.1583L1.83999 10.7259L2.4603 8.606L7.46522 3.61539L6.85876 3.00985ZM7.95491 4.12031L2.89276 9.19723L3.62799 9.35554L3.72907 10.034L8.80599 4.97093L7.95491 4.12031Z" fill="#00392F"/>
</g>
<defs>
<clipPath id="clip0_650_7432">
<rect width="12" height="12" fill="white" transform="translate(0.5 0.5)"/>
</clipPath>
</defs>
</svg>
